<?xml version="1.0" encoding="utf-8"?>
<!-- Generator: Adobe Illustrator 24.3.0, SVG Export Plug-In . SVG Version: 6.00 Build 0)  -->
<svg version="1.1" id="Layer_1" xmlns="http://www.w3.org/2000/svg" xmlns:xlink="http://www.w3.org/1999/xlink" x="0px" y="0px"
	 viewBox="0 0 1053.54 736" style="enable-background:new 0 0 1053.54 736;" xml:space="preserve">
<style type="text/css">
	.st0{fill:url(#SVGID_1_);}
	.st1{fill:url(#SVGID_2_);}
	.st2{fill:url(#SVGID_3_);}
	.st3{fill:url(#SVGID_4_);}
	.st4{fill:url(#SVGID_5_);}
	.st5{fill:url(#SVGID_6_);}
	.st6{fill:url(#SVGID_7_);}
	.st7{fill:url(#SVGID_8_);}
	.st8{fill:url(#SVGID_9_);}
	.st9{fill:url(#SVGID_10_);}
	.st10{fill:url(#SVGID_11_);}
	.st11{fill:url(#SVGID_12_);}
	.st12{fill:url(#SVGID_13_);}
	.st13{fill:url(#SVGID_14_);}
	.st14{fill:url(#SVGID_15_);}
	.st15{fill:url(#SVGID_16_);}
	.st16{fill:url(#SVGID_17_);}
</style>
<g>
	<g>
		<g>
			
				<linearGradient id="SVGID_1_" gradientUnits="userSpaceOnUse" x1="695.9785" y1="1272.2657" x2="770.4078" y2="1334.719" gradientTransform="matrix(1 0 0 1 0 -1214)">
				<stop  offset="0" style="stop-color:#A4D480"/>
				<stop  offset="0.1333" style="stop-color:#9DD383"/>
				<stop  offset="0.3241" style="stop-color:#8AD18D"/>
				<stop  offset="0.5497" style="stop-color:#6BCE9D"/>
				<stop  offset="0.7997" style="stop-color:#41C9B3"/>
				<stop  offset="1" style="stop-color:#19C5C7"/>
			</linearGradient>
			<path class="st0" d="M738.25,130.73c5.46-0.5,10.42-2.48,14.39-5.95s6.94-7.94,8.93-12.4c3.97-8.93,5.46-17.36,5.46-27.28
				c0-4.96-0.5-9.92-1.98-14.39c-1.49-4.96-3.97-9.43-7.44-12.9c-3.47-3.47-7.94-6.45-12.9-7.94c-4.96-1.49-9.92-1.49-14.39-0.5
				c-9.43,2.48-16.37,8.43-21.33,15.87c-4.96,7.94-6.45,16.87-5.46,25.8c0.5,4.46,0.99,8.93,2.98,13.39
				c1.49,4.46,3.47,8.43,6.45,12.4c2.98,3.97,6.45,7.94,10.91,10.42C727.83,130.23,732.8,131.22,738.25,130.73z M738.25,132.21
				c-5.46,0.5-10.91,0.5-16.87-0.99c-5.46-1.49-11.41-3.47-16.37-6.94c-4.96-3.47-9.43-7.94-12.4-13.39
				c-2.98-5.46-4.46-11.91-5.46-17.86c-1.49-12.4,1.98-25.8,9.92-35.72c3.97-4.96,8.43-9.43,14.39-12.4
				c5.46-2.98,11.91-3.97,17.86-3.97c12.4,0,22.82,5.95,31.25,12.9c4.46,3.47,8.43,7.94,11.41,12.9c3.47,4.96,5.46,10.91,6.45,16.87
				s0.99,12.4-0.99,18.35c-1.49,5.95-4.96,11.41-9.43,15.87C760.57,126.76,749.17,131.22,738.25,132.21z"/>
			
				<linearGradient id="SVGID_2_" gradientUnits="userSpaceOnUse" x1="798.382" y1="1247.3051" x2="872.8094" y2="1309.7574" gradientTransform="matrix(1 0 0 1 0 -1214)">
				<stop  offset="0" style="stop-color:#A4D480"/>
				<stop  offset="0.1333" style="stop-color:#9DD383"/>
				<stop  offset="0.3241" style="stop-color:#8AD18D"/>
				<stop  offset="0.5497" style="stop-color:#6BCE9D"/>
				<stop  offset="0.7997" style="stop-color:#41C9B3"/>
				<stop  offset="1" style="stop-color:#19C5C7"/>
			</linearGradient>
			<path class="st1" d="M860.28,30.03c-3.97-3.47-8.93-5.95-13.89-6.94c-4.96-0.99-10.42,0-14.88,1.49
				c-8.93,3.47-15.38,8.93-21.83,15.87c-2.98,3.47-5.46,7.44-7.44,12.4s-2.48,9.92-1.98,14.88c0.5,10.42,6.45,19.84,14.88,25.3
				c8.43,5.46,17.36,7.44,26.29,5.95s15.38-6.94,20.34-14.39c2.48-3.47,4.46-7.44,5.95-11.91s2.48-8.93,2.48-13.89
				c0.5-4.96,0-10.42-1.49-14.88C867.23,38.46,864.25,33.99,860.28,30.03z M861.28,29.03c7.94,6.94,15.38,16.37,18.85,28.28
				c1.49,5.46,2.48,11.91,1.49,18.35c-0.99,6.45-2.98,12.4-6.45,17.86c-3.47,5.46-7.94,9.92-13.39,13.89
				c-5.46,3.47-11.91,5.46-18.35,5.95c-6.45,0.5-12.9-0.5-18.85-2.98c-5.95-2.48-10.42-6.45-14.39-10.91
				c-7.94-8.93-12.4-19.84-14.39-30.76c-0.99-5.46-1.49-11.41-0.99-17.36s1.98-11.91,5.46-17.36c2.98-5.46,7.44-9.92,12.9-13.39
				c5.46-3.47,11.91-4.96,17.86-4.96c5.95,0,11.91,1.49,17.36,3.97C852.84,22.09,857.31,25.56,861.28,29.03z"/>
			
				<linearGradient id="SVGID_3_" gradientUnits="userSpaceOnUse" x1="491.3664" y1="1421.4855" x2="808.4811" y2="1687.5762" gradientTransform="matrix(1 0 0 1 0 -1214)">
				<stop  offset="0" style="stop-color:#A4D480"/>
				<stop  offset="0.1333" style="stop-color:#9DD383"/>
				<stop  offset="0.3241" style="stop-color:#8AD18D"/>
				<stop  offset="0.5497" style="stop-color:#6BCE9D"/>
				<stop  offset="0.7997" style="stop-color:#41C9B3"/>
				<stop  offset="1" style="stop-color:#19C5C7"/>
			</linearGradient>
			<path class="st2" d="M831.51,191.25l-31.25,3.47c-10.42,1.49-21.33,0.99-29.76,6.94c-8.43,5.46-14.39,14.88-14.88,24.8
				c-0.5,4.96,0.5,9.92,1.98,14.88c0.99,4.96,1.98,10.42,2.98,15.38c3.47,20.83,5.95,41.67,5.95,62.5v7.94
				c0,2.98-0.5,5.95-1.49,8.93c-1.98,5.95-5.95,10.91-11.41,13.89c-5.46,2.98-11.41,4.46-17.86,3.47
				c-6.45-0.99-11.91-3.97-15.87-8.93c-1.98-2.48-3.97-4.96-4.96-7.94l-2.98-6.94l-5.95-14.39c-3.97-9.43-7.94-19.35-11.91-28.77
				c-3.97-9.43-8.43-18.85-12.9-28.28c-1.98-4.46-4.46-9.43-6.94-13.89l-7.44-13.39l-3.47-6.45c-0.99-1.98-2.48-3.97-3.97-5.46
				c-2.98-3.47-6.45-5.95-10.42-8.43c-7.94-4.46-16.87-5.95-25.8-4.96l-61.02,10.91l-61.02,10.91c-8.93,1.98-17.36,7.44-23.32,14.39
				c-5.95,7.44-8.93,16.37-8.93,26.29c-0.5,20.34,0.5,41.17,3.47,61.51c2.98,20.34,7.94,40.68,14.88,60.02
				c3.47,9.43,7.44,19.35,11.91,28.28c5.46,8.43,12.9,15.38,22.32,18.85c9.43,3.97,19.35,4.46,29.27,1.98
				c4.96-0.99,9.43-3.47,13.89-5.46l14.39-6.45l14.39-6.45c1.49-0.5,1.98-0.99,2.98-1.49c0.99-0.5,1.49-1.49,1.98-1.98
				c0.99-1.49,1.49-3.47,0.99-5.46c0-0.99-0.5-1.49-0.99-2.98l-1.98-3.47l-3.47-6.94c-1.98-4.96-4.46-9.43-6.45-14.39
				c-3.97-9.92-7.44-19.84-9.92-29.76c-2.98-9.92-4.96-20.34-6.94-30.76c-0.5-2.48-0.99-5.46-0.99-7.94c-0.5-2.48-0.99-5.95,0-9.43
				c1.98-6.94,8.43-11.91,15.38-12.4c3.47-0.5,6.94,0.5,10.42,2.48c1.49,0.99,2.98,1.98,3.97,3.47l1.49,1.98l0.99,1.49
				c2.98,4.46,5.46,8.93,7.94,13.89c9.92,18.85,16.37,40.18,17.36,62.01c0.99,21.83-3.47,43.65-12.4,63.5s-21.83,37.7-37.7,52.58
				c-15.38,14.88-33.24,27.28-51.09,38.2l-6.94,3.97l-0.5,0.5c0,0-0.99,0.99,1.98-1.49c1.98-2.48,1.98-5.46,0.5-7.94
				c-2.98-2.98-4.46-2.98-3.47-2.48l1.98,0.5l3.97,0.99l14.88,4.96l29.76,9.92l59.03,20.34c4.96,1.49,9.43,3.47,13.39,3.97
				c1.98,0,2.98,0,2.98,0s0,0,0.5-0.5c0,0,0,0,0.5-0.5l0.5-0.5l2.48-2.48c6.94-6.94,12.9-14.88,18.85-23.32
				c10.91-16.37,19.84-35.22,26.29-54.07c1.49-4.96,2.98-9.43,4.46-14.39l1.98-7.44l0.99-3.97l0.5-1.98l0.5-0.99v-0.5
				c0,0.99,0-1.49,2.98-4.46c3.97-2.48,4.96-1.49,4.46-1.49h0.5h0.99h1.98l3.97-0.5l7.94-0.99l15.38-1.49l31.25-2.98
				c10.42-0.99,20.34-1.49,29.76-3.97c18.85-5.46,36.21-15.87,49.11-31.25c12.9-14.88,21.83-34.23,23.81-54.07
				c1.98-20.34,2.98-41.17,2.98-62.01c0-10.42-0.5-20.83-1.49-31.25c-0.99-10.42-2.48-20.83-3.97-30.76
				c-0.99-4.96-0.99-10.42-2.48-15.38s-3.97-9.43-7.44-13.39c-3.47-3.97-7.94-6.45-12.4-8.43
				C841.43,191.74,836.47,190.75,831.51,191.25z M831.02,189.76c5.46-0.5,10.91,0,15.87,1.98c4.96,1.98,9.43,4.96,13.39,8.93
				c3.47,3.97,6.45,8.93,7.94,13.89c0.5,2.48,0.99,4.96,1.49,7.94l0.99,7.94c1.49,10.42,3.47,20.83,4.46,30.76
				c0.99,10.42,1.98,20.83,2.48,31.25c0.99,20.83,0.99,41.67-0.5,63c-1.49,21.33-9.43,42.66-22.82,59.53
				c-13.39,16.87-32.24,30.26-53.58,36.71c-10.42,3.47-21.83,4.46-31.75,5.95l-31.25,3.47l-15.38,1.98l-7.94,0.99l-3.97,0.5h-1.98
				h-0.99H707c-0.99,0,0,0.5,3.47-1.49c2.48-2.48,2.48-4.96,2.48-3.47v0.5l-0.5,0.99l-0.5,1.98l-0.99,3.97l-1.98,7.94
				c-1.49,4.96-2.98,10.42-4.46,15.38c-6.94,20.34-15.87,40.18-27.78,58.04c-5.95,8.93-12.9,17.86-20.34,25.3l-2.98,2.98l-0.5,0.5
				c0,0-0.5,0.5-0.99,0.99c-0.99,0.99-1.98,1.49-2.98,1.98c-4.46,2.48-8.93,2.48-12.4,1.98c-6.94-0.99-11.91-2.98-16.87-4.46
				l-59.03-20.34l-29.27-10.42l-14.88-4.96l-3.47-1.49l-1.98-0.5c0.99,0-0.99,0.5-3.97-2.98c-1.98-2.98-1.49-6.45,0.5-8.93
				c2.98-2.98,2.48-1.98,2.98-2.48l0.5-0.5l6.45-3.97c17.86-9.92,34.23-21.83,49.11-35.72c14.88-13.89,26.79-29.76,35.22-48.12
				c8.93-17.86,13.39-37.7,12.4-57.54c-0.5-19.84-5.95-39.69-14.39-58.04c-1.98-4.46-4.46-8.93-6.94-13.39l-0.99-1.49l-0.99-0.99
				c-0.5-0.5-0.99-1.49-1.98-1.49c-1.49-0.99-2.98-1.49-4.46-1.49c-3.47,0-6.94,2.48-7.94,5.46c-0.5,1.49-0.5,3.47,0,5.95
				c0.5,2.48,0.5,4.96,0.99,7.44c1.49,9.92,3.47,20.34,5.95,30.26c2.48,9.92,5.46,19.84,8.93,29.27c1.98,4.96,3.97,9.43,5.95,14.39
				l2.98,6.94l1.49,3.47c0.5,0.99,1.49,2.98,1.49,4.46c0.5,3.47,0,6.45-1.98,9.43c-0.99,1.49-1.98,2.48-3.47,3.47
				c-1.49,0.99-2.98,1.49-3.97,1.98l-14.39,5.95l-14.39,5.95c-4.46,1.98-9.43,4.46-14.88,5.46c-10.42,2.48-21.83,1.49-32.24-2.48
				c-9.92-3.97-18.85-11.41-24.8-20.83c-5.46-9.43-8.93-18.85-12.9-28.77c-6.94-19.84-12.4-40.18-16.37-60.52
				c-3.47-20.83-5.46-41.67-5.46-63c-0.5-10.91,2.98-22.82,9.92-31.75c6.94-9.43,16.87-15.87,28.28-18.85
				c20.83-4.46,40.68-8.43,61.51-12.9c20.34-3.97,40.68-8.43,61.51-11.91c11.91-1.98,24.31,0,34.23,5.95
				c5.46,2.98,9.92,6.94,13.89,11.41c1.98,2.48,3.47,4.96,4.96,7.44l3.97,6.94c10.42,18.85,18.35,37.7,26.29,57.54
				c3.97,9.92,7.44,19.35,10.91,29.27l5.46,14.88l2.48,7.44c0.5,1.98,1.49,3.97,2.98,5.46c4.96,6.45,15.38,8.93,22.82,4.46
				c3.97-1.98,6.94-5.46,8.43-9.43c0.99-1.98,0.99-3.97,1.49-6.45l0.5-7.94c0.99-20.83-0.5-41.17-2.98-62.01
				c-0.5-4.96-1.49-10.42-2.48-15.38s-1.98-10.42-1.49-15.87c0.99-10.91,7.44-20.83,16.37-26.29c4.46-2.98,9.92-4.46,14.88-4.96
				l15.38-1.49L831.02,189.76z"/>
		</g>
		<g>
			
				<linearGradient id="SVGID_4_" gradientUnits="userSpaceOnUse" x1="245.8956" y1="1272.3478" x2="320.325" y2="1334.8011" gradientTransform="matrix(1 0 0 1 0 -1214)">
				<stop  offset="0" style="stop-color:#A4D480"/>
				<stop  offset="0.1333" style="stop-color:#9DD383"/>
				<stop  offset="0.3241" style="stop-color:#8AD18D"/>
				<stop  offset="0.5497" style="stop-color:#6BCE9D"/>
				<stop  offset="0.7997" style="stop-color:#41C9B3"/>
				<stop  offset="1" style="stop-color:#19C5C7"/>
			</linearGradient>
			<path class="st3" d="M288.32,130.73c5.46-0.5,10.42-2.48,14.39-5.95c3.97-3.47,6.45-7.94,8.93-12.4
				c3.97-8.93,5.46-17.36,5.46-27.28c0-4.96-0.5-9.92-1.49-14.39c-1.49-4.96-3.97-9.43-7.44-12.9c-3.47-3.47-7.94-6.45-12.9-7.94
				c-4.96-1.49-9.92-1.49-14.88-0.5c-9.92,2.48-16.37,8.43-21.33,15.87c-4.96,7.94-6.45,16.87-5.46,25.8
				c0.5,4.46,0.99,8.93,2.98,13.39c1.49,4.46,3.47,8.43,6.45,12.4c2.98,3.97,6.45,7.94,10.91,10.42
				C277.41,130.23,282.86,131.22,288.32,130.73z M288.32,132.21c-5.46,0.5-10.91,0.5-16.87-0.99c-5.46-1.49-11.41-3.47-16.37-6.94
				c-4.96-3.47-9.43-7.94-12.4-13.39c-2.98-5.46-4.96-11.91-5.46-17.86c-1.49-12.4,1.98-25.8,9.92-35.72
				c3.97-4.96,8.43-9.43,13.89-12.4c5.46-2.98,11.91-3.97,17.86-3.97c12.4,0,22.82,5.95,31.25,12.9c4.46,3.47,8.43,7.94,11.41,12.9
				c3.47,4.96,5.46,10.91,6.45,16.87c0.99,5.95,0.99,12.4-0.99,18.35c-1.49,5.95-4.96,11.41-9.43,15.87
				C310.64,126.76,299.23,131.22,288.32,132.21z"/>
			
				<linearGradient id="SVGID_5_" gradientUnits="userSpaceOnUse" x1="348.3561" y1="1247.3188" x2="422.7835" y2="1309.7712" gradientTransform="matrix(1 0 0 1 0 -1214)">
				<stop  offset="0" style="stop-color:#A4D480"/>
				<stop  offset="0.1333" style="stop-color:#9DD383"/>
				<stop  offset="0.3241" style="stop-color:#8AD18D"/>
				<stop  offset="0.5497" style="stop-color:#6BCE9D"/>
				<stop  offset="0.7997" style="stop-color:#41C9B3"/>
				<stop  offset="1" style="stop-color:#19C5C7"/>
			</linearGradient>
			<path class="st4" d="M410.35,30.03c-3.97-3.47-8.93-5.95-13.89-6.94c-4.96-0.99-10.42,0-14.88,1.49
				c-8.93,3.47-15.38,8.93-21.83,15.87c-2.98,3.47-5.95,7.44-7.44,12.4c-1.49,4.96-2.48,9.92-1.98,14.88
				c0.5,10.42,6.45,19.84,14.88,25.3c8.43,5.46,17.36,7.44,26.29,5.95s15.38-6.94,20.34-14.39c2.48-3.47,4.46-7.44,5.95-11.91
				s2.48-8.93,2.48-13.89c0.5-4.96,0-10.42-1.49-14.88C417.3,38.46,414.32,33.99,410.35,30.03z M411.34,29.03
				c7.94,6.94,15.38,16.37,18.85,28.28c1.49,5.46,2.48,11.91,1.49,18.35c-0.99,6.45-3.47,12.4-6.45,17.86
				c-3.47,5.46-7.94,9.92-13.39,13.89c-5.46,3.47-11.91,5.46-18.35,5.95c-6.45,0.5-12.9-0.5-18.85-2.98
				c-5.95-2.48-10.91-6.45-14.39-10.91c-7.94-8.93-12.4-19.84-14.39-30.76c-0.99-5.46-1.49-11.41-0.99-17.36
				c0.5-5.95,1.98-11.91,5.46-17.36c2.98-5.46,7.44-9.92,12.9-13.39s11.91-4.96,17.86-4.96s11.91,1.49,17.36,4.46
				S407.38,25.56,411.34,29.03z"/>
			
				<linearGradient id="SVGID_6_" gradientUnits="userSpaceOnUse" x1="41.3856" y1="1421.4449" x2="358.5003" y2="1687.5356" gradientTransform="matrix(1 0 0 1 0 -1214)">
				<stop  offset="0" style="stop-color:#A4D480"/>
				<stop  offset="0.1333" style="stop-color:#9DD383"/>
				<stop  offset="0.3241" style="stop-color:#8AD18D"/>
				<stop  offset="0.5497" style="stop-color:#6BCE9D"/>
				<stop  offset="0.7997" style="stop-color:#41C9B3"/>
				<stop  offset="1" style="stop-color:#19C5C7"/>
			</linearGradient>
			<path class="st5" d="M381.08,191.25l-31.25,3.47c-10.42,1.49-21.33,0.99-29.76,6.94c-8.43,5.46-13.89,14.88-14.88,24.8
				c-0.5,4.96,0.5,9.92,1.98,14.88c0.99,4.96,1.98,10.42,2.98,15.38c3.47,20.83,5.95,41.67,5.95,62.5v7.94
				c0,2.98-0.5,5.95-1.49,8.93c-1.98,5.95-5.95,10.91-11.41,13.89c-5.46,2.98-11.41,4.46-17.86,3.47
				c-5.95-0.99-11.91-3.97-15.87-8.93c-1.98-2.48-3.97-4.96-4.96-7.94l-2.98-6.94l-4.96-14.88c-3.97-9.43-7.44-19.35-11.91-28.77
				c-3.97-9.43-8.43-18.85-12.9-28.28c-2.48-4.46-4.46-9.43-6.94-13.89l-7.44-13.39l-3.47-6.45c-0.99-1.98-2.48-3.97-3.97-5.46
				c-2.98-3.47-6.45-5.95-10.42-8.43c-7.44-4.46-16.87-5.95-25.8-4.96l-61.02,10.91L51.2,226.96c-8.93,1.98-17.36,7.44-23.32,14.39
				c-5.95,7.44-8.93,16.37-8.93,26.29c-0.5,20.34,0.5,41.17,3.47,61.51c2.98,20.34,7.94,40.68,14.88,60.02
				c3.47,9.43,7.44,19.35,11.91,28.28c4.96,8.43,12.9,15.38,22.32,18.85c9.43,3.97,19.84,4.46,29.27,1.98
				c4.96-0.99,9.43-3.47,14.39-5.46l14.39-6.45l14.39-6.45c1.49-0.5,1.98-0.99,2.98-1.49c0.99-0.5,1.49-1.49,1.98-1.98
				c0.99-1.49,1.49-3.47,0.99-5.46c0-0.99-0.5-1.49-0.99-2.98l-1.98-3.47l-3.47-6.45c-2.48-4.96-4.46-9.43-6.45-14.39
				c-3.97-9.92-7.44-19.84-9.92-29.76c-2.98-9.92-4.96-20.34-6.94-30.76c-0.5-2.48-0.99-5.46-0.99-7.94c-0.5-2.48-0.99-5.95,0-9.43
				c1.98-6.94,8.43-11.91,15.38-12.4c3.47-0.5,6.94,0.5,10.42,2.48c1.49,0.99,2.98,1.98,3.97,3.47l1.49,1.98l0.99,1.49
				c2.98,4.46,5.46,8.93,7.94,13.89c9.92,18.85,16.37,40.18,17.36,62.01c0.99,21.83-3.47,43.65-12.4,63.5
				c-8.93,19.84-21.83,37.7-37.7,52.58c-15.38,14.88-32.74,27.28-51.59,38.2l-6.94,3.97l-0.5,0.5c0,0-0.99,0.99,1.98-1.49
				c1.98-2.48,1.98-5.46,0-7.94c-2.48-2.98-4.46-2.98-3.47-2.48l1.98,0.5l3.97,0.99l14.88,4.96l29.76,9.92l59.03,20.34
				c4.96,1.49,9.92,3.47,13.39,3.97c1.98,0,2.98,0,2.98,0s0,0,0.5-0.5c0,0,0,0,0.5-0.5l0.5-0.5l2.48-2.48
				c6.94-6.94,12.9-14.88,18.85-23.32c10.91-16.37,19.84-35.22,26.29-54.07c1.49-4.96,2.98-9.43,4.46-14.39l1.98-7.44l0.99-3.97
				l0.5-1.98v-0.99v-0.5c0,0.99,0-1.49,2.48-4.46c3.97-2.48,4.96-1.49,4.46-1.49h0.5h0.99h1.98l3.97-0.5l7.94-0.99l15.38-1.49
				l31.25-2.98c10.42-0.99,20.34-1.49,29.76-3.97c18.85-5.46,36.21-15.87,49.11-31.25c12.9-14.88,21.83-34.23,23.81-54.07
				c1.98-20.34,2.98-41.17,2.98-62.01c0-10.42-0.5-20.83-1.49-31.25c-0.99-10.42-2.48-20.83-3.97-30.76
				c-0.99-4.96-0.99-10.42-2.48-15.38c-1.49-4.96-3.97-9.43-7.44-13.39c-3.47-3.97-7.94-6.45-12.4-8.43
				C391.5,191.74,386.54,190.75,381.08,191.25z M381.08,189.76c5.46-0.5,10.91,0,15.87,1.98s9.43,4.96,13.39,8.93
				c3.47,3.97,6.45,8.93,7.94,13.89c0.99,2.48,0.99,4.96,1.49,7.94l0.99,7.94c1.49,10.42,3.47,20.83,4.46,30.76
				c0.99,10.42,1.98,20.83,2.48,31.25c0.99,20.83,0.99,41.67-0.5,63c-1.49,21.33-9.43,42.66-22.82,59.53
				c-13.39,16.87-32.24,30.26-53.58,36.71c-10.42,3.47-21.83,4.46-31.75,5.95l-31.25,3.47l-15.38,1.98l-7.94,0.99l-3.97,0.5h-1.98
				h-0.99h-0.5c-0.99,0,0,0.5,3.47-1.49c2.48-2.48,2.48-4.96,2.48-3.47v0.5v0.99l-0.5,1.98l-0.99,3.97l-1.98,7.94
				c-1.49,4.96-2.98,10.42-4.46,15.38c-6.94,20.34-15.87,40.18-27.78,58.04c-5.95,8.93-12.9,17.86-20.34,25.3l-2.98,2.98l-0.99,0.5
				c0,0-0.5,0.5-0.99,0.99c-0.99,0.99-1.98,1.49-2.98,1.98c-4.46,2.48-8.93,2.48-12.4,1.98c-6.94-0.99-11.91-2.98-16.87-4.46
				l-59.03-20.34l-29.27-10.42l-14.88-4.96l-3.47-1.49l-1.98-0.5c0.99,0-0.99,0.5-3.97-2.98c-1.98-2.98-1.49-6.45,0.5-8.93
				c2.98-2.98,2.48-1.98,2.48-2.48l0.5-0.5l6.94-3.97c17.86-9.92,34.23-21.83,49.11-35.72c14.88-13.89,26.79-29.76,35.22-48.12
				c8.93-18.35,13.39-38.2,12.9-58.04c-0.5-19.84-5.95-39.69-14.39-58.04c-1.98-4.46-4.46-8.93-6.94-13.39l-0.99-1.49l-0.99-0.99
				c-0.5-0.5-0.99-1.49-1.98-1.49c-1.49-0.99-2.98-1.49-4.46-1.49c-3.47,0-6.94,2.48-7.44,5.46c-0.5,1.49-0.5,3.47,0,5.95
				c0,2.48,0.5,4.96,0.99,7.44c1.49,9.92,3.47,20.34,5.95,30.26c2.48,9.92,5.46,19.84,8.93,29.27c1.98,4.96,3.97,9.43,5.95,14.39
				l2.98,6.94l1.49,3.47c0.5,0.99,1.49,2.98,1.49,4.46c0.5,3.47,0,6.45-1.49,9.43c-0.99,1.49-1.98,2.48-3.47,3.47
				c-1.49,0.99-2.98,1.49-3.97,1.98l-14.39,5.95l-14.39,5.95c-4.96,1.98-9.43,4.46-14.88,5.46c-10.42,2.48-21.83,1.49-32.24-2.48
				c-9.92-3.97-18.85-11.41-24.8-20.83c-5.46-9.43-8.93-18.85-12.9-28.77c-6.94-19.84-12.4-40.18-16.37-60.52
				c-3.47-20.83-5.46-41.67-5.46-63c-0.5-10.91,2.98-22.82,9.92-31.75c6.94-9.43,16.87-15.87,28.28-18.85
				c20.83-4.46,40.68-8.43,61.51-12.9c20.34-3.97,40.68-8.43,61.51-11.91c11.91-1.98,24.31,0,34.23,5.95
				c4.96,2.98,9.92,6.94,13.89,11.41c1.98,2.48,3.47,4.96,4.96,7.44l3.97,6.94c10.42,18.85,18.35,37.7,26.29,57.54
				c3.97,9.92,7.44,19.35,10.91,29.27l5.46,14.88l2.48,7.44c0.5,1.98,1.49,3.97,2.98,5.46c4.96,6.45,15.38,8.93,22.82,4.46
				c3.97-1.98,6.94-5.46,8.43-9.43c0.99-1.98,0.99-3.97,1.49-6.45l0.5-7.94c0.99-20.83-0.5-41.17-2.98-62.01
				c-0.5-4.96-1.49-10.42-2.48-15.38c-0.99-4.96-1.98-10.42-1.49-15.87c0.99-10.91,7.44-20.83,16.37-26.29
				c4.46-2.98,9.92-4.46,14.88-4.96l15.38-1.49L381.08,189.76z"/>
		</g>
	</g>
	<linearGradient id="SVGID_7_" gradientUnits="userSpaceOnUse" x1="840.8708" y1="200.0346" x2="1038.8757" y2="200.0346">
		<stop  offset="0.1036" style="stop-color:#207E39"/>
		<stop  offset="1" style="stop-color:#8CC63F"/>
	</linearGradient>
	<polygon class="st6" points="854.82,199.92 858.11,209.65 950.62,204.67 1038.88,199.92 950.62,195.17 840.87,190.42 	"/>
	<linearGradient id="SVGID_8_" gradientUnits="userSpaceOnUse" x1="856.3077" y1="273.0575" x2="995.4104" y2="273.0575">
		<stop  offset="0.1036" style="stop-color:#197938"/>
		<stop  offset="1" style="stop-color:#8CC63F"/>
	</linearGradient>
	<polygon class="st7" points="866.11,272.94 868.42,282.51 933.41,277.61 995.41,272.94 933.41,268.28 856.31,263.61 	"/>
	<linearGradient id="SVGID_9_" gradientUnits="userSpaceOnUse" x1="180.5866" y1="551.9009" x2="423.7454" y2="551.9009">
		<stop  offset="0.1036" style="stop-color:#61A93D"/>
		<stop  offset="1" style="stop-color:#8CC63F"/>
	</linearGradient>
	<polygon class="st8" points="197.72,551.79 201.76,561.35 315.37,556.46 423.75,551.79 315.37,547.12 180.59,542.45 	"/>
	<linearGradient id="SVGID_10_" gradientUnits="userSpaceOnUse" x1="257.016" y1="440.1601" x2="455.0208" y2="440.1601">
		<stop  offset="0.1036" style="stop-color:#207E39"/>
		<stop  offset="1" style="stop-color:#8CC63F"/>
	</linearGradient>
	<polygon class="st9" points="270.96,440.02 274.25,452.32 366.77,446.02 455.02,440.02 366.77,434.01 257.02,428 	"/>
	<linearGradient id="SVGID_11_" gradientUnits="userSpaceOnUse" x1="84.7671" y1="207.794" x2="282.772" y2="207.794">
		<stop  offset="0.1036" style="stop-color:#87C23F"/>
		<stop  offset="1" style="stop-color:#8CC63F"/>
	</linearGradient>
	<path class="st10" d="M194.52,201.43l-16.42-0.9c0.21,1.91-0.43,3.83-2.33,5.34c-2.55,2.03-6.26,2.19-9.5,2.15
		c2.31,0.45,4.47,2.36,4.47,4.91v2.14l23.78-1.62l88.25-6.01L194.52,201.43z"/>
	<linearGradient id="SVGID_12_" gradientUnits="userSpaceOnUse" x1="288.6512" y1="29.9458" x2="486.656" y2="29.9458">
		<stop  offset="0.1036" style="stop-color:#7EBC3E"/>
		<stop  offset="1" style="stop-color:#8CC63F"/>
	</linearGradient>
	<path class="st11" d="M398.4,23.58l-16.42-0.9c0.21,1.91-0.43,3.83-2.33,5.34c-2.55,2.03-6.26,2.19-9.5,2.15
		c2.31,0.45,4.47,2.36,4.47,4.91v2.14l23.78-1.62l88.25-6.01L398.4,23.58z"/>
	<linearGradient id="SVGID_13_" gradientUnits="userSpaceOnUse" x1="742.2603" y1="29.9458" x2="940.2651" y2="29.9458">
		<stop  offset="0.1036" style="stop-color:#207E39"/>
		<stop  offset="1" style="stop-color:#8CC63F"/>
	</linearGradient>
	<path class="st12" d="M852.01,23.58l-16.42-0.9c0.21,1.91-0.43,3.83-2.33,5.34c-2.55,2.03-6.26,2.19-9.5,2.15
		c2.31,0.45,4.47,2.36,4.47,4.91v2.14l23.78-1.62l88.25-6.01L852.01,23.58z"/>
	
		<linearGradient id="SVGID_14_" gradientUnits="userSpaceOnUse" x1="638.893" y1="517.6589" x2="937.8461" y2="517.6589" gradientTransform="matrix(1 0 0 -1 0 1074.0673)">
		<stop  offset="0.1036" style="stop-color:#137538"/>
		<stop  offset="1" style="stop-color:#8CC63F"/>
	</linearGradient>
	<polygon class="st13" points="659.95,556.55 664.92,544.25 804.6,550.55 937.85,556.55 804.6,562.56 638.89,568.57 	"/>
	
		<linearGradient id="SVGID_15_" gradientUnits="userSpaceOnUse" x1="671.966" y1="582.5056" x2="817.117" y2="582.5056" gradientTransform="matrix(1 0 0 -1 0 1074.0673)">
		<stop  offset="0.1036" style="stop-color:#147538"/>
		<stop  offset="1" style="stop-color:#8CC63F"/>
	</linearGradient>
	<polygon class="st14" points="682.19,491.68 684.6,481.82 752.42,486.86 817.12,491.68 752.42,496.49 671.97,501.3 	"/>
	
		<linearGradient id="SVGID_16_" gradientUnits="userSpaceOnUse" x1="754.2022" y1="1739.8816" x2="184.7616" y2="1262.0651" gradientTransform="matrix(1 0 0 1 0 -1214)">
		<stop  offset="0" style="stop-color:#006837"/>
		<stop  offset="0.1751" style="stop-color:#227F39"/>
		<stop  offset="0.4385" style="stop-color:#509D3C"/>
		<stop  offset="0.6734" style="stop-color:#71B43D"/>
		<stop  offset="0.8407" style="stop-color:#85C13F"/>
		<stop  offset="1" style="stop-color:#8CC63F"/>
	</linearGradient>
	<path class="st15" d="M738.25,131.72c10.42-0.99,19.35-5.95,26.29-15.38c6.94-9.43,9.92-19.84,8.43-31.75
		c-0.99-11.91-5.95-21.83-14.88-29.27c-8.93-7.44-18.35-10.91-28.77-9.92c-10.42,0.99-18.85,5.95-25.8,15.38s-9.43,19.84-7.94,31.75
		c1.49,11.91,5.95,21.83,14.39,29.27C718.41,129.24,727.83,132.71,738.25,131.72z M860.78,29.53c-8.43-7.44-17.86-10.91-28.28-9.92
		c-10.42,0.99-19.35,5.95-26.29,15.38s-9.92,19.84-8.43,31.75c0.99,11.91,5.95,21.83,14.88,29.27s18.35,10.91,28.77,9.92
		c10.42-0.99,18.85-5.95,25.8-15.38c6.94-8.93,9.43-19.84,7.94-31.75C874.17,46.89,869.21,37.47,860.78,29.53z M831.51,190.75
		l-46.63,4.96c-20.34,1.98-33.73,20.83-29.76,40.68c0,0.99,0.5,1.49,0.5,1.98c2.48,13.39,4.46,26.79,5.95,40.18
		c1.49,16.37,1.98,32.74,1.49,49.11c-0.5,10.91-8.93,19.84-19.35,21.33l0,0c-10.42,1.49-20.34-4.46-23.81-14.39
		c-4.96-12.9-9.92-25.8-14.88-38.69c-6.94-18.35-14.88-36.21-23.32-53.58c-3.97-7.44-7.94-15.38-11.91-22.32
		c-9.92-16.37-29.27-24.8-48.12-21.33l-119.06,22.82c-20.83,3.97-36.21,22.32-37.21,43.65v0.5c-0.5,14.39,0.5,29.76,1.98,46.63
		c2.48,22.32,7.44,46.13,15.38,70.94c3.47,10.91,7.44,21.33,12.9,32.24c11.41,24.31,40.68,34.23,64.98,23.32l35.72-15.87
		c5.46-2.48,7.94-8.93,4.96-14.39c-8.43-16.87-14.88-32.74-18.85-48.12c-4.96-18.35-8.43-34.23-9.92-48.61l0,0
		c-1.49-13.39,16.37-19.35,23.32-7.94c13.39,22.32,21.83,44.65,23.81,66.97c2.98,29.76-3.97,58.54-21.33,86.32
		c-17.36,27.78-45.64,52.58-84.83,73.91c-0.5,0-0.5,0.5,0,0.5l114.59,39.19c10.91,3.97,15.87,2.98,19.35,0
		c12.9-11.91,23.81-26.79,33.73-45.14c10.91-20.83,19.35-43.65,25.3-68.95c0,0,0-0.5,0.5-0.5l46.63-4.96l0,0l27.28-2.98
		c50.6-5.46,90.28-46.13,93.76-97.23v-0.99c2.48-33.73,1.98-65.48-0.99-95.24c-1.49-13.39-3.47-26.29-5.46-38.2l0,0
		C864.75,200.67,848.38,188.77,831.51,190.75z M288.32,131.72c10.42-0.99,19.35-5.95,26.29-15.38s9.92-19.84,8.43-31.75
		c-0.99-11.91-5.95-21.83-14.88-29.27c-8.93-7.44-18.35-10.91-28.77-9.92c-10.42,0.99-18.85,5.95-25.8,15.38
		c-6.94,9.43-9.43,19.84-8.43,31.75s5.95,21.83,14.39,29.27C268.48,129.24,277.9,132.71,288.32,131.72z M410.85,29.53
		c-8.43-7.44-17.86-10.91-28.28-9.92c-10.42,0.99-19.35,5.95-26.29,15.38s-9.92,19.84-8.43,31.75c0.99,11.91,5.95,21.83,14.88,29.27
		s18.35,10.91,28.77,9.92c10.42-0.99,18.85-5.95,25.8-15.38c6.45-8.93,9.43-19.84,8.43-31.75
		C424.24,46.89,419.28,37.47,410.85,29.53z M381.08,190.75l-46.63,4.96c-20.34,1.98-33.73,20.83-29.76,40.68
		c0,0.99,0.5,1.49,0.5,1.98c2.48,13.39,4.46,26.79,5.95,40.18c1.49,16.37,1.98,32.74,1.49,49.11c-0.5,10.91-8.93,19.84-19.35,21.33
		l0,0c-10.42,1.49-20.34-4.46-23.81-14.39c-4.96-12.9-9.92-25.8-14.88-38.69c-7.44-18.35-14.88-36.21-23.32-53.58
		c-3.47-6.94-7.44-14.88-11.91-21.83c-9.92-16.37-29.27-24.8-48.12-21.33L52.19,222c-20.83,3.97-36.71,22.32-37.21,43.65v0.5
		c-0.5,14.39,0.5,29.76,1.98,46.63c2.48,22.32,7.44,46.13,15.38,70.94c3.47,10.91,7.44,21.33,12.9,32.24
		c11.41,24.31,40.68,34.23,64.98,23.32l35.72-15.87c5.46-2.48,7.94-8.93,4.96-14.39c-8.43-16.87-14.88-32.74-18.85-48.12
		c-4.96-18.35-8.43-34.23-9.92-48.61l0,0c-1.49-13.39,16.37-19.35,23.32-7.94c13.39,22.32,21.33,44.65,23.81,66.97
		c2.98,29.76-3.97,58.54-21.33,86.32c-17.36,27.78-45.64,52.58-84.33,73.91c-0.5,0-0.5,0.5,0,0.5l114.59,39.19
		c10.91,3.97,15.87,2.98,19.35,0c12.9-11.91,23.81-26.79,33.73-45.14c10.91-20.83,19.35-43.65,25.3-68.95c0,0,0-0.5,0.5-0.5
		l46.63-4.96l0,0l27.28-2.98c50.6-4.96,89.79-45.64,93.76-96.73v-0.99c2.48-33.73,1.98-65.48-0.99-95.24
		c-1.49-13.39-3.47-26.29-5.46-38.2l0,0C414.32,200.67,398.45,188.77,381.08,190.75z"/>
</g>
<linearGradient id="SVGID_17_" gradientUnits="userSpaceOnUse" x1="15.4619" y1="666.6747" x2="491.1468" y2="666.6747">
	<stop  offset="0" style="stop-color:#006837"/>
	<stop  offset="0.3913" style="stop-color:#016739"/>
	<stop  offset="0.5322" style="stop-color:#066340"/>
	<stop  offset="0.6327" style="stop-color:#0E5D4B"/>
	<stop  offset="0.714" style="stop-color:#1A555C"/>
	<stop  offset="0.7837" style="stop-color:#2A4972"/>
	<stop  offset="0.8453" style="stop-color:#3D3B8E"/>
	<stop  offset="0.901" style="stop-color:#532AAE"/>
	<stop  offset="0.9506" style="stop-color:#6D17D2"/>
	<stop  offset="0.9964" style="stop-color:#8A02FB"/>
	<stop  offset="1" style="stop-color:#8C00FF"/>
</linearGradient>
<path class="st16" d="M80.25,644.82c-1.88,0-8.24-2.81-19.06-8.43c1.09-1.28,4.77-3.77,11.02-7.47c6.25-3.69,10.09-5.54,11.52-5.54
	c0.4,0,3.56,1.51,9.47,4.52c5.91,3.02,9.17,4.79,9.75,5.32c-2.93,2.26-6.47,4.54-10.61,6.84C86.68,643.23,82.65,644.82,80.25,644.82
	z M151.54,633.9c3.98-2.38,7.82-4.6,11.52-6.67c0.99,0.53,4.23,1.8,9.73,3.82c5.5,2.02,8.51,3.03,9.02,3.03
	c1.71,0,7.16-3.37,16.36-10.12l-18.84-7.3c-0.61,0.23-2.99,1.47-7.12,3.73c-3.53,2.07-5.6,3.11-6.23,3.11
	c-1.37,0-4.2-0.89-8.49-2.66c-4.29-1.77-7.04-3.11-8.24-4.02c-4.45,2.45-9.95,5.77-16.49,9.95c1.35,1.02,4.32,2.36,8.92,4.02
	C145.94,632.41,149.23,633.45,151.54,633.9z M220.67,701.85c-5.1-3.41-7.91-5.12-8.42-5.12c-1.08,0-4.56,1.62-10.41,4.86
	c-5.86,3.24-8.85,5.22-8.98,5.94c-0.08,0.45,2.26,2.09,7.05,4.92c4.78,2.83,7.65,4.24,8.63,4.24c1.48,0,5.11-1.37,10.87-4.1
	c5.76-2.73,8.71-4.48,8.85-5.23C228.3,707.1,225.77,705.26,220.67,701.85z M251.31,647.98c-2.69-3.92-5.22-6.62-7.57-8.09
	c-9.51,8.75-15.02,13.99-16.54,15.72c6.5,4.3,10.21,10.27,11.13,17.93h-41.35h-8.22c-3.14,0-5.81-0.74-8.02-2.21
	c-2.21-1.47-2.87-3.2-1.98-5.2c2.57-6.11,4.22-11.31,4.97-15.61c0.05-0.26,0.06-0.62,0.03-1.07c0.07-0.38,0.13-0.68,0.17-0.9
	l0.21-1.13c-0.51,0.26-3.64,2.39-9.4,6.36c-5.76,3.98-8.73,6.1-8.89,6.36c-2.03,7.84-3.55,12.31-4.55,13.4h-34.24h-7.19
	c-4.17,0-7.53-1.7-10.09-5.09c-3.89-5.47-6.75-9.58-8.57-12.33l-16.84,15.04c2.97,3.02,5.65,6.71,8.04,11.08
	c2.84,5.28,3.99,9.37,3.45,12.27c-1.86,1.39-7.39,2.62-16.61,3.68c-7.39,0.75-13.51,1.13-18.36,1.13
	c-19.98,0-29.06-4.83-27.26-14.48c0.9-4.83,3.58-8.94,8.03-12.33c4.94-3.54,8.69-6.18,11.24-7.92c-2.85,0.3-4.54,0.77-5.06,1.42
	c-2.45,0-6.9,2.73-13.34,8.2c-5.67,4.71-9.37,8.29-11.08,10.75c-4.43,5.99-6.99,10.88-7.7,14.65
	c-2.03,10.89,10.62,16.34,37.96,16.34c4.11,0,10.7-0.97,19.76-2.91c9.06-1.94,15.19-3.78,18.36-5.51c2.16-1.17,5.36-3.97,9.61-8.4
	c4.25-4.43,6.52-7.42,6.81-8.96h7.96h7.79h28.08l10.92-10.35c1.01,3.43,2.43,5.92,4.26,7.46c2.38,1.92,6,2.88,10.85,2.88h6.25h9.59
	h50.59c1.09-1.28,2.71-3.66,4.84-7.13c4.28-7.35,6.79-12.99,7.52-16.91c0.58-3.09,0.39-6.09-0.55-8.99
	C255.48,654.66,253.83,651.6,251.31,647.98z M489.33,661.61c-2.19-2.34-6.06-4.24-11.6-5.71c-5-1.36-9.9-2-14.71-1.92
	c-16.12,0.11-28.21,0.21-36.27,0.28l-28.7,0.11c-43.15,0-65.1-0.59-65.85-1.75c1.15-1.55,5.45-3.51,12.91-5.88
	c5.6-1.85,10.69-3.3,15.28-4.36c6.32-1.47,12.6-2.98,18.82-4.52c8.23-1.92,14.38-3.05,18.44-3.39c6.87-5.32,13.08-10.14,18.62-14.48
	l-15.49,2.72c-8.37,1.43-16.85,3.3-25.44,5.6c-19.43,5.35-34.93,11.31-46.48,17.87c-10.49,6.03-16.12,11.14-16.9,15.32
	c-0.34,1.81,0.98,3.17,3.95,4.07c6.08,2,24.72,3,55.94,3c8.67,0,19.17-0.13,31.49-0.4c19.96-0.53,34.96-0.94,45.01-1.24
	c2.24-0.07,5.7,0.82,10.37,2.68c4.67,1.87,7.04,3.4,7.1,4.61l-156.89-0.64l0.01-0.04h-14.98c-2.42-0.19-3.66-1.17-3.73-2.94
	c0.2-3.5,0.42-6.99,0.67-10.46l1.07-24.09c0.45-7.92,0.81-14.27,1.07-19.06c-7.86,5.73-13.74,10.18-17.64,13.35l-2.89,43.04
	c-0.63,11.01-0.82,16.61-0.56,16.8h23.63l-0.02,0.11h179.35c7.59,0,12.52-6.09,14.79-18.27c0.64-1.28,1.05-2.41,1.23-3.39
	C491.49,665.61,490.96,663.27,489.33,661.61z"/>
</svg>
