<?xml version="1.0" encoding="utf-8"?>
<!-- Generator: Adobe Illustrator 24.3.0, SVG Export Plug-In . SVG Version: 6.00 Build 0)  -->
<svg version="1.1" id="Layer_1" xmlns="http://www.w3.org/2000/svg" xmlns:xlink="http://www.w3.org/1999/xlink" x="0px" y="0px"
	 viewBox="0 0 517.03 889.04" style="enable-background:new 0 0 517.03 889.04;" xml:space="preserve">
<style type="text/css">
	.st0{fill:#FF0043;}
	.st1{fill:#FEFEFE;}
	.st2{fill:#05A9D3;}
	.st3{fill:#FE0013;}
	.st4{fill:#FE0006;}
	.st5{fill:#CAC8C8;}
	.st6{fill:#C5000F;}
	.st7{fill:#C1C1C1;}
	.st8{fill:#CAC9C9;}
	.st9{fill:#C9C7C7;}
	.st10{fill:#C7C5C5;}
	.st11{fill:#C50110;}
	.st12{fill:#D2EFFC;}
	.st13{fill:#F2FAFE;}
	.st14{fill:#F1FAFE;}
	.st15{fill:#D4F0FC;}
</style>
<path class="st0" d="M504.86,293.01c-1.32,49.77-17.79,95.76-44.97,133.53c-0.16,0.22-0.29,0.45-0.39,0.7L268.35,874.78
	c-1.3,3.05-5.63,3.05-6.93,0L70.25,427.21c-0.11-0.25-0.24-0.48-0.39-0.7c-28.34-39.41-45.02-87.75-45.02-139.99
	c0-128.48,100.92-233.37,227.82-239.74C391.9,39.78,508.56,153.63,504.86,293.01z"/>
<g>
	<path d="M266.1,374.57c-59.19,0-118.37,0-177.56,0c-1.21,0-2.43,0.07-3.63-0.04c-3.58-0.32-6.08-2.9-6.17-6.26
		c-0.09-3.52,2.48-6.42,6.25-6.55c5.24-0.18,10.5-0.27,15.73,0.02c3.2,0.18,3.91-0.82,3.9-3.93c-0.11-45.06-0.07-90.13-0.07-135.19
		c0-9.15-0.08-18.3,0.06-27.44c0.03-2.12-0.71-2.95-2.57-3.69c-14.76-5.81-23.21-18.13-23.31-33.87c-0.06-9.82,0-19.64-0.1-29.46
		c-0.03-2.56,0.71-4.62,2.3-6.63c20.65-26.17,41.27-52.36,61.8-78.63c2.39-3.06,5.11-4.21,8.96-4.21
		c57.71,0.09,115.41,0.03,173.12,0.14c3.31,0.01,5.07-0.72,6.69-3.92C344.16,9.9,372.05-3.82,399.93,0.93
		c27.35,4.66,49,27.33,52.73,54.87c1.97,14.55-0.81,28.58-5.63,41.94c-3.39,9.39-3.44,16.73,4.29,23.48
		c1.67,1.45,2.02,3.65,2.01,5.93c-0.07,10.49,0.05,20.99-0.06,31.48c-0.16,14.65-8.97,27.35-22.73,32.65
		c-2.34,0.9-3.15,1.91-3.15,4.51c0.1,54.07,0.1,108.15,0,162.22c-0.01,2.98,0.63,3.92,3.7,3.73c4.69-0.3,9.41-0.1,14.12-0.07
		c5.11,0.03,8.04,2.37,8.06,6.42c0.02,4.06-2.9,6.49-7.99,6.49c-34.17,0.01-68.33,0.01-102.5,0.01
		C317.22,374.57,291.66,374.57,266.1,374.57z"/>
	<path class="st1" d="M402.41,361.55c-4.42-0.03-10.07,1.57-12.89-0.56c-2.65-2.01-0.76-8.03-0.77-12.27
		c-0.06-35.78-0.03-71.56-0.04-107.34c0-6.88-1.99-8.88-8.85-8.88c-32.01,0.01-64.02,0.02-96.04,0.03
		c-0.25,0.11-0.48,0.26-0.74,0.31c-7.42,1.47-8.52,2.73-8.52,10.09c-0.02,37.22,0.01,74.43-0.03,111.65c0,2.36,0.54,4.89-1.31,6.93
		c-1.61,0.05-3.22,0.15-4.83,0.15c-48.8,0.01-97.6-0.04-146.39,0.1c-3.75,0.01-4.52-1.04-4.51-4.62c0.12-53.1,0.12-106.2,0-159.3
		c-0.01-3.35,0.76-4.4,4.15-4.15c11.31,0.85,21.62-1.71,30.05-9.79c1.53-1.46,2.93-3.06,4.4-4.59c1.48,1.51,2.92,3.06,4.46,4.51
		c6.73,6.36,14.71,9.73,23.99,9.91c3.76,0.07,7.53-0.08,11.29,0.04c11.56,0.38,21.25-3.66,29.15-12.08c2.2-1.13,3.14,0.85,4.25,1.91
		c6.32,5.97,13.82,9.2,22.42,10.04c8.45,0.03,16.91,0.2,25.36,0.05c9.58-0.17,17.51-4.38,24.46-10.69c0.94,0.18,1.83,0.55,2.52,1.2
		c7.06,6.69,15.97,8.43,25.15,9.44c10.49-0.07,21.09,1.26,31.31-2.36c3.02,3.18,4.13,7.44,6.21,11.15
		c2.22,3.97,3.95,8.21,6.27,12.14c2.42,4.11,3.7,4.48,8.18,2.73c0.85-0.33,1.69-0.95,2.57-0.08c4.91,3.71,8.42,3.05,11.39-2.25
		c2.28-4.06,4.44-8.19,6.66-12.29c1.8,0.32,1.7,1.85,1.89,3.11c0.22,1.46,0.13,2.95,0.13,4.43c0,48,0.01,96-0.02,143.99
		C403.73,356.7,404.31,359.37,402.41,361.55z"/>
	<path class="st2" d="M375.8,303.76c0,18.03-0.06,36.05,0.06,54.08c0.02,2.79-0.36,3.93-3.62,3.91
		c-25.69-0.16-51.39-0.12-77.08-0.03c-2.59,0.01-3.38-0.63-3.37-3.32c0.09-36.59,0.09-73.18,0-109.77c-0.01-2.76,0.9-3.27,3.42-3.26
		c25.69,0.08,51.39,0.1,77.08-0.01c2.79-0.01,3.61,0.65,3.58,3.53C375.73,267.17,375.8,285.46,375.8,303.76z"/>
	<path class="st3" d="M384.89,192.02c-16.11-31-31.2-62.45-41.77-95.86c-3.33-10.52-6.09-21.19-6.04-32.34
		c0.11-23.96,17.84-45.28,41.43-49.93c0.92-0.18,1.87-0.17,2.81-0.26c11.58-1.69,21.29,1.84,29.73,9.91
		c15.76,15.08,19.67,33.56,16.25,54.29c-3.35,20.27-10.24,39.51-17.29,58.69c-6.27,17.03-13.39,33.72-20.81,50.28
		C388.29,188.85,387.99,191.68,384.89,192.02z"/>
	<path class="st1" d="M215.12,122.6c-16.52,0-33.04,0-49.71,0c-0.22-1.18,0.94-2.31,1.57-3.55c10.84-21.42,21.78-42.78,32.54-64.24
		c1.2-2.39,2.42-3.29,5.12-3.22c8.33,0.23,16.67,0.14,25.01,0.18c1.51,1.66,0.88,3.56,0.5,5.37c-4.42,20.51-8.6,41.07-13.1,61.56
		C216.73,120.17,216.32,121.57,215.12,122.6z"/>
	<path class="st4" d="M143.26,122.56c-15.43,0-30.86,0-46.34,0c-0.24-1.48,0.93-2.18,1.62-3.05c17.17-21.71,34.39-43.37,51.52-65.11
		c1.56-1.98,3.13-2.86,5.72-2.79c8.46,0.22,16.93,0.16,25.39,0.21c0.61,1.63-0.39,2.84-1.08,4.12
		c-10.62,19.63-21.33,39.21-31.78,58.93C146.87,117.57,145.66,120.46,143.26,122.56z"/>
	<path class="st4" d="M287.76,122.57c-17.59,0-35.18,0-53.11,0c3.05-13.79,6.04-27.38,9.06-40.96c1.98-8.9,4.11-17.78,5.92-26.71
		c0.5-2.44,1.28-3.38,3.88-3.29c6.31,0.22,12.63,0.13,18.94,0.17c1.8,0.75,1.9,2.47,2.23,4.01c4.41,20.44,8.68,40.91,13.07,61.36
		C288.13,118.9,289.01,120.76,287.76,122.57z"/>
	<path class="st4" d="M270.85,180.7c-6.56-0.03-13.18,0.89-19.67-0.58c-10.16-2.3-17.22-11-17.41-21.43
		c-0.13-6.72,0.05-13.44-0.09-20.16c-0.05-2.25,0.58-2.98,2.91-2.96c17.33,0.13,34.66,0.13,52,0.18c1.05,1.03,1.15,2.38,1.15,3.73
		c0.03,6.7,0.24,13.4-0.07,20.08c-0.36,7.72-4.13,13.69-10.16,18.36C276.93,179.92,273.88,180.25,270.85,180.7z"/>
	<path class="st1" d="M196.56,180.7c-5.37,0.03-10.76,0.71-16.08-0.48c-10.41-2.32-17.58-10.99-17.77-21.58
		c-0.13-6.86,0.03-13.72-0.08-20.58c-0.03-1.91,0.48-2.51,2.45-2.49c16.41,0.12,32.82,0.12,49.23,0.16
		c1.16,1.16,1.16,2.67,1.16,4.15c0.03,6.59,0.17,13.17-0.04,19.75C215.08,170.84,207.51,179.19,196.56,180.7z"/>
	<path class="st4" d="M125.54,180.7c-5.49,0-11.01,0.72-16.45-0.56c-10.14-2.38-17.21-11.03-17.41-21.45
		c-0.13-6.72,0-13.44-0.06-20.15c-0.02-1.8,0.05-2.99,2.47-2.97c16.12,0.15,32.24,0.15,48.36,0.21c0.84,0.79,1.12,1.83,1.12,2.92
		c-0.01,8.3,0.6,16.63-0.94,24.87C140.82,173.29,134.73,179.42,125.54,180.7z"/>
	<path class="st5" d="M402.41,361.55c0.03-32.36,0.07-64.73,0.1-97.09c0.01-19.2,0.02-38.41-0.03-57.61c0-1.4,0.6-2.98-0.74-4.17
		c1.2-2.38,2.49-4.72,3.58-7.15c0.66-1.48,1.67-1.76,3.17-1.82c6.07-0.23,6.07-0.28,6.07,5.72c0,52.73-0.04,105.46,0.08,158.18
		c0.01,3.38-0.81,4.5-4.17,4.1C407.81,361.4,405.1,361.59,402.41,361.55z"/>
	<path class="st6" d="M384.89,192.02c3.45-3.45,4.47-8.2,6.33-12.43c10.17-23.07,19.68-46.42,27.19-70.51
		c4.74-15.21,9.58-30.54,8.95-46.69c-0.75-19.04-8.97-34.28-25.48-44.43c-6.25-3.84-13.3-4.76-20.55-4.33
		c11.45-2.18,22.34-0.14,32.17,5.71c18.54,11.05,28.07,27.47,26.73,49.32c-0.59,9.59-3.33,18.83-6.22,28.02
		c-3.52,11.23-7.47,22.28-12,33.13c-9.56,22.87-20.31,45.18-31.88,67.1c-0.99,1.87-1.88,2.23-2.92,0.18
		C386.35,195.45,385.65,193.72,384.89,192.02z"/>
	<path class="st1" d="M341.86,180.68c-4.55,0.12-9.11,0.55-13.62-0.59c-9.63-2.43-16.72-11-16.97-20.97
		c-0.18-6.98,0.05-13.97-0.11-20.94c-0.05-2.23,0.75-2.7,2.74-2.63c3.08,0.11,6.17-0.02,9.26-0.05c0.25-0.11,0.5-0.22,0.77-0.23
		c11.29-0.62,11.33-0.64,15.8,9.73c3.67,8.51,7.53,16.94,11.15,25.47c2.27,5.35,0.73,8.22-5.07,9.5
		C344.5,180.26,343.15,180.31,341.86,180.68z"/>
	<path class="st1" d="M329.73,122.57c-5.23,0.05-10.48-0.11-15.69,0.22c-2.75,0.17-3.63-0.82-4.17-3.3
		c-4.6-21.07-9.3-42.12-13.96-63.17c-0.32-1.43-0.58-2.87-0.92-4.54c7.42,0,14.64,0,21.86,0c0.94,0.94,1.14,2.12,0.97,3.35
		c-2.1,15.15,1.47,29.59,5.41,43.99c1.7,6.22,4,12.24,5.88,18.39C329.59,119.15,330.48,120.76,329.73,122.57z"/>
	<path class="st5" d="M273.23,361.5c0-39.63-0.01-79.26-0.01-118.89c0-9.05,1.26-10.25,10.61-10.08c-3.9,1.63-4.97,4.67-4.96,8.71
		c0.09,38.4,0.05,76.81,0.05,115.21C278.93,361.85,278.93,361.85,273.23,361.5z"/>
	<path class="st6" d="M287.76,122.57c-4.83-22.71-9.65-45.42-14.5-68.13c-0.19-0.9-0.54-1.77-0.81-2.66
		c8.65-0.37,8.47-0.33,10.62,8.04c4.83,18.84,8.75,37.88,13.04,56.84c1.37,6.08,1.41,6.08-4.74,6.05
		C290.17,122.69,288.97,122.61,287.76,122.57z"/>
	<path class="st7" d="M329.73,122.57c-6.02-16.65-11.42-33.47-13.51-51.14c-0.77-6.54,0.01-13.11,0.61-19.65c2.79,0,5.58,0,8.41,0
		c-3.99,25.19,5.54,47.63,13.18,70.79C335.45,122.57,332.59,122.57,329.73,122.57z"/>
	<path class="st8" d="M215.12,122.6c4.72-22.29,9.44-44.57,14.13-66.87c0.27-1.29,0.27-2.64,0.4-3.96c2.39,0,4.79,0,7.48,0
		c-2.88,13.09-5.67,25.9-8.52,38.71c-1.98,8.9-4.02,17.78-6.03,26.68C221.28,122.93,221.28,122.93,215.12,122.6z"/>
	<path class="st6" d="M143.26,122.56c4.39-8.42,8.71-16.87,13.2-25.24c6.27-11.67,12.67-23.27,19.01-34.9
		c1.92-3.53,3.8-7.07,5.7-10.61c1.56-0.11,3.15-0.46,4.96,0.36c-1.74,3.64-3.37,7.25-5.16,10.78c-9.04,17.86-18.34,35.6-27.04,53.62
		C151.49,121.63,148.69,123.88,143.26,122.56z"/>
	<path class="st4" d="M425.16,179.27c-3.74,1.82-7.67,1.7-12.08,1.37c3.84-8.17,7.6-15.98,11.19-23.86
		c3.11-6.82,5.98-13.75,9.05-20.58c0.57-1.27,0.62-2.92,2.17-3.64c1.3,1.27,1.19,2.93,1.2,4.53c0.03,6.85,0.1,13.69-0.02,20.54
		c-0.08,4.47-1.13,8.77-2.98,12.86C431.91,174.45,428.83,177.15,425.16,179.27z"/>
	<path class="st7" d="M341.86,180.68c2.57-1.39,5.52-1.9,7.93-3.75c1.57-1.2,1.94-2.15,1.12-4c-5.07-11.52-10.05-23.07-14.98-34.66
		c-0.81-1.89-1.92-2.61-3.97-2.55c-2.93,0.09-5.88-0.13-8.81-0.22c6.13-0.94,12.29-0.35,18.44-0.29c1.74,0.02,2.58,0.92,3.2,2.44
		c4.89,11.87,10.26,23.53,15.91,35.06c1.02,2.08,0.55,3.02-1.18,4.2C354.13,180.58,348.15,181.3,341.86,180.68z"/>
	<path class="st6" d="M270.85,180.7c12.71-4.45,17.77-11.63,17.77-25.25c0-6.57-0.02-13.13-0.04-19.7c9.73-0.49,9.73-0.49,9.73,9.21
		c0,3.21-0.26,6.45,0.04,9.63C299.86,170.28,287.47,182.95,270.85,180.7z"/>
	<path class="st6" d="M125.54,180.7c12.59-3.65,16.35-13.03,16.88-25.19c0.29-6.57,0.04-13.16,0.03-19.73
		c7.31-0.46,7.31-0.46,7.31,6.76c0,5.09,0.03,10.17-0.01,15.26C149.67,171.43,139.22,181.31,125.54,180.7z"/>
	<path class="st5" d="M383.68,217.21c-0.94,0.49-1.87,0.98-2.81,1.47c-3.09,1.59-5.87,1.22-7.66-1.86
		c-4.77-8.25-9.14-16.71-12.76-25.54c7.21-4.35,7.17-4.33,10.94,2.86C375.44,201.85,379.58,209.52,383.68,217.21z"/>
	<path class="st8" d="M196.56,180.7c13.07-3.65,18.55-13.69,17.88-25.2c-0.38-6.57-0.11-13.18-0.13-19.77
		c6.49-0.3,6.49-0.3,6.49,6.28c0,5.22,0.03,10.45-0.01,15.67C220.69,171.55,210.41,181.3,196.56,180.7z"/>
	<path class="st6" d="M425.16,179.27c8.77-7.15,10.88-16.77,10.42-27.48c-0.28-6.4-0.07-12.82-0.09-19.23
		c3.69-0.87,5.2,0.21,4.99,4.35c-0.35,6.94-0.07,13.91-0.1,20.87C440.32,168.1,435.03,175.55,425.16,179.27z"/>
	<path class="st9" d="M329.14,193.64c-10.86,0.69-20.26-2.38-27.67-10.64c0.62-0.86,1.23-1.73,1.86-2.59
		c0.82-1.14,1.54-1.72,2.71-0.19C311.89,187.83,319.94,191.74,329.14,193.64z"/>
	<path class="st10" d="M251.65,193.63c-9.6,0.25-17.47-3.61-24.16-10.21c-0.76-0.75-1.29-1.7-2.5-1.74
		c1.19-2.31,2.19-3.36,4.39-0.55C235.02,188.32,242.91,191.8,251.65,193.63z"/>
	<path d="M194.87,232.49c16.54,0,33.07-0.01,49.61,0c6.55,0,8.61,2.08,8.61,8.7c0.01,24.34,0.01,48.67,0,73.01
		c0,6.61-2.07,8.69-8.63,8.7c-33.07,0.01-66.15,0.01-99.22,0c-6.29,0-8.39-2.13-8.39-8.51c-0.01-24.47-0.01-48.94,0-73.41
		c0-6.37,2.1-8.48,8.4-8.49C161.79,232.48,178.33,232.49,194.87,232.49z"/>
	<path d="M333.79,303.53c-6.99,0-13.97,0.03-20.96-0.01c-5.68-0.03-8.04-2.4-8.07-8.11c-0.04-9.67-0.04-19.34,0-29.02
		c0.02-5.68,2.4-8.04,8.12-8.06c13.97-0.03,27.94-0.03,41.91,0c5.69,0.01,8.05,2.39,8.07,8.11c0.04,9.67,0.04,19.34,0,29.02
		c-0.02,5.67-2.41,8.03-8.12,8.06C347.76,303.56,340.78,303.53,333.79,303.53z"/>
	<path d="M298.32,327.74c0-2.28-0.11-4.57,0.02-6.85c0.22-3.82,2.88-6.5,6.31-6.56c3.43-0.06,6.34,2.59,6.5,6.35
		c0.19,4.69,0.19,9.4,0,14.1c-0.15,3.78-3.05,6.41-6.49,6.35c-3.44-0.06-6.1-2.73-6.32-6.55
		C298.21,332.31,298.32,330.02,298.32,327.74z"/>
	<path d="M383.96,32.43c18.95-0.6,32.5,7.72,38.11,23.38c8.35,23.28-8.95,47.67-33.68,47.5c-1.48-0.01-2.95-0.08-4.43-0.13
		c-19.29-2.1-31.51-16.1-31.58-36.02C352.31,51.08,364.13,33.51,383.96,32.43z"/>
	<path class="st11" d="M383.96,32.43c-4.7,1.38-9.44,2.51-13.78,5.05c-7.64,4.48-12.23,11.14-15.17,19.27
		c-6.41,17.72,4.3,42,27.08,45.83c0.64,0.11,1.25,0.4,1.87,0.6c-13.22,0.82-24.68-6.94-30.14-21.44
		c-6.5-17.27-0.59-38.76,16.87-46.88C374.87,32.92,379.27,31.77,383.96,32.43z"/>
	<path class="st12" d="M149.89,306.75c0-0.81,0.01-1.63,0.01-2.44c1.82-3.9,5.81-5.48,8.86-8.01c4.13-3.42,8.33-6.78,13.01-10.03
		c-3.1-0.82-5.5,0.03-7.77,1.73c-3.44,2.58-6.67,5.44-10.23,7.85c-1.13,0.77-2.11,2.29-3.86,1.23c0.01-4.15-1.52-9.42,0.47-12.12
		c1.89-2.57,7.51-0.71,11.48-0.77c7.93-0.13,15.87,0.04,23.8-0.09c2.26-0.04,2.96,0.57,2.91,2.87c-0.15,6.86-0.12,13.72-0.01,20.58
		c0.03,1.94-0.54,2.5-2.48,2.48c-11.56-0.13-23.13-0.13-34.69-0.17c-0.24-1.89,1.4-2.46,2.46-3.34
		c7.57-6.21,15.26-12.26,22.88-18.39c0.69-0.56,1.64-0.89,2.05-2.37c-5.53,3.21-9.88,7.36-14.65,10.93
		c-3.75,2.81-7.34,5.84-11.11,8.64C152.09,306.02,151.32,307.12,149.89,306.75z"/>
	<path class="st12" d="M201.57,297.09c0.01-4.15-1.52-9.42,0.47-12.12c1.89-2.57,7.51-0.71,11.48-0.77
		c7.93-0.13,15.87,0.04,23.8-0.09c2.26-0.04,2.96,0.57,2.91,2.87c-0.15,6.86-0.12,13.72-0.01,20.58c0.03,1.94-0.54,2.5-2.48,2.48
		c-11.56-0.13-23.13-0.13-34.69-0.17c-0.24-1.89,1.4-2.46,2.46-3.34c7.57-6.21,15.26-12.26,22.88-18.39
		c0.69-0.56,1.64-0.89,2.05-2.37c-5.53,3.21-9.88,7.36-14.65,10.93c-3.75,2.81-7.34,5.84-11.11,8.64c-0.94,0.69-1.71,1.79-3.14,1.42
		c0-0.81,0.01-1.63,0.01-2.44c1.82-3.9,5.81-5.47,8.86-8.01c4.12-3.43,8.35-6.76,12.98-10.03c-3.08-0.81-5.48,0.04-7.74,1.74
		c-3.44,2.58-6.67,5.44-10.23,7.85C204.3,296.63,203.32,298.15,201.57,297.09z"/>
	<path class="st12" d="M232.08,245.55c8.1-0.44,8.1-0.44,8.1,7.43c0,5.22-0.05,10.44,0.03,15.66c0.02,1.68-0.06,2.68-2.27,2.66
		c-11.64-0.11-23.29-0.05-34.93-0.06c-0.6,0-1.4,0.2-1.44-0.83c2.45-4.74,7.32-6.9,11.07-10.23c4.99-4.42,10.39-8.38,15.56-12.61
		C229.38,246.6,230.78,246.21,232.08,245.55z"/>
	<path class="st12" d="M180.42,245.55c8.1-0.44,8.1-0.44,8.1,7.43c0,5.22-0.05,10.44,0.03,15.66c0.02,1.68-0.06,2.68-2.27,2.66
		c-11.64-0.11-23.29-0.05-34.93-0.06c-0.6,0-1.4,0.2-1.44-0.83c2.45-4.74,7.32-6.9,11.07-10.23c4.99-4.42,10.39-8.38,15.56-12.61
		C177.72,246.6,179.12,246.21,180.42,245.55z"/>
	<path class="st13" d="M149.91,297.09c4.63-2.22,8.34-5.76,12.22-8.96c3.42-2.81,6.92-3.75,12.11-2.72
		c-8.46,6.57-16.4,12.73-24.34,18.9C149.9,301.91,149.9,299.5,149.91,297.09z"/>
	<path class="st13" d="M201.57,297.09c4.63-2.22,8.34-5.76,12.22-8.96c3.42-2.81,6.92-3.75,12.11-2.72
		c-8.46,6.57-16.4,12.73-24.34,18.9C201.57,301.91,201.57,299.5,201.57,297.09z"/>
	<path class="st13" d="M215.96,245.55c2.95,0,5.89,0,8.84,0.01c-0.49,2.57-2.9,3.3-4.58,4.69c-4.86,4.01-9.86,7.85-14.84,11.71
		c-1.06,0.82-2.07,2.34-3.82,1.22c0-2.15,0.01-4.31,0.01-6.46C205.64,252.06,210.47,248.37,215.96,245.55z"/>
	<path class="st13" d="M164.29,245.55c2.95,0,5.89,0,8.84,0.01c-0.49,2.57-2.9,3.3-4.58,4.69c-4.86,4.01-9.86,7.85-14.84,11.71
		c-1.06,0.82-2.07,2.34-3.82,1.22c0-2.15,0.01-4.31,0.01-6.46C153.98,252.06,158.8,248.37,164.29,245.55z"/>
	<path class="st14" d="M149.89,306.75c9.97-7.52,19.16-16.16,29.86-22.65c0.42,0.56,0.84,1.12,1.26,1.68
		c-9.87,8.02-19.74,16.05-29.62,24.07C148.33,310.06,150.3,307.84,149.89,306.75z"/>
	<path class="st14" d="M201.56,306.75c10.03-7.43,18.99-16.39,29.97-22.48c0.38,0.51,0.76,1.01,1.14,1.52
		c-9.87,8.02-19.74,16.05-29.62,24.07C200,310.06,201.96,307.84,201.56,306.75z"/>
	<path class="st13" d="M180.42,245.55c-10.17,8.28-20.34,16.57-30.51,24.85c0-1.6,0-3.2,0-4.79c8.06-7.33,16.42-14.28,25.69-20.07
		C177.2,245.54,178.81,245.55,180.42,245.55z"/>
	<path class="st13" d="M232.08,245.55c-10.17,8.28-20.34,16.57-30.51,24.85c0-1.6,0-3.2,0-4.79c8.06-7.33,16.42-14.28,25.69-20.07
		C228.86,245.54,230.47,245.55,232.08,245.55z"/>
	<path class="st12" d="M215.96,245.55c-4.6,3.98-9.34,7.78-14.39,11.16c0.02-3.61-1.29-8.17,0.43-10.56
		c1.63-2.26,6.5-0.55,9.94-0.72C213.27,245.36,214.62,245.5,215.96,245.55z"/>
	<path class="st12" d="M164.29,245.55c-4.6,3.98-9.34,7.78-14.39,11.16c0.02-3.61-1.29-8.17,0.43-10.56
		c1.63-2.26,6.5-0.55,9.94-0.72C161.61,245.36,162.95,245.5,164.29,245.55z"/>
	<path class="st15" d="M175.59,245.54c-8.47,6.8-16.72,13.9-25.69,20.07c0-0.81-0.01-1.63-0.01-2.44
		c6.23-3.44,11.15-8.63,16.94-12.67c2.19-1.52,4.21-3.29,6.3-4.95C173.95,245.55,174.77,245.55,175.59,245.54z"/>
	<path class="st15" d="M227.26,245.54c-8.47,6.8-16.72,13.9-25.69,20.07c0-0.81-0.01-1.63-0.01-2.44
		c6.23-3.44,11.15-8.63,16.94-12.67c2.19-1.52,4.21-3.29,6.3-4.95C225.62,245.55,226.44,245.55,227.26,245.54z"/>
	<path class="st12" d="M333.51,290.62c-4.3,0-8.61-0.1-12.9,0.04c-2.14,0.07-3.1-0.34-2.99-2.78c0.2-4.56,0.16-9.14,0.01-13.71
		c-0.07-2.15,0.36-3.03,2.79-2.99c8.87,0.15,17.74,0.12,26.61,0.01c2.14-0.03,3.1,0.34,2.99,2.78c-0.2,4.56-0.24,9.15,0.01,13.7
		c0.15,2.7-0.92,3.06-3.22,2.98C342.39,290.5,337.95,290.62,333.51,290.62z"/>
	<path class="st1" d="M388.72,45.22c12.41,0,22.54,10.1,22.58,22.5c0.04,12.57-10.22,22.78-22.8,22.69
		c-12.38-0.09-22.42-10.28-22.38-22.71C366.17,55.3,376.31,45.21,388.72,45.22z"/>
</g>
</svg>
