<?xml version="1.0" encoding="utf-8"?>
<!-- Generator: Adobe Illustrator 24.3.0, SVG Export Plug-In . SVG Version: 6.00 Build 0)  -->
<svg version="1.1" id="Layer_1" xmlns="http://www.w3.org/2000/svg" xmlns:xlink="http://www.w3.org/1999/xlink" x="0px" y="0px"
	 viewBox="0 0 193.82 134.77" style="enable-background:new 0 0 193.82 134.77;" xml:space="preserve">
<style type="text/css">
	.st0{fill:#FFFFFF;stroke:#F8FFFA;stroke-miterlimit:10;}
	.st1{fill:url(#SVGID_1_);}
	.st2{fill:url(#SVGID_2_);}
	.st3{fill:url(#SVGID_3_);}
	.st4{fill:url(#SVGID_4_);}
	.st5{fill:url(#SVGID_5_);}
	.st6{fill:url(#SVGID_6_);}
	.st7{fill:url(#SVGID_7_);}
	.st8{fill:url(#SVGID_8_);}
	.st9{fill:url(#SVGID_9_);}
	.st10{fill:url(#SVGID_10_);}
	.st11{fill:url(#SVGID_11_);}
	.st12{fill:url(#SVGID_12_);}
	.st13{fill:url(#SVGID_13_);}
	.st14{fill:url(#SVGID_14_);}
	.st15{fill:url(#SVGID_15_);}
	.st16{fill:url(#SVGID_16_);}
	.st17{fill:url(#SVGID_17_);}
	.st18{fill:url(#SVGID_18_);}
	.st19{fill:url(#SVGID_19_);}
	.st20{fill:url(#SVGID_20_);}
	.st21{fill:url(#SVGID_21_);}
	.st22{fill:url(#SVGID_22_);}
	.st23{fill:url(#SVGID_23_);}
	.st24{fill:url(#SVGID_24_);}
	.st25{fill:url(#SVGID_25_);}
	.st26{fill:url(#SVGID_26_);}
	.st27{fill:url(#SVGID_27_);}
	.st28{fill:url(#SVGID_28_);}
	.st29{fill:url(#SVGID_29_);}
	.st30{fill:url(#SVGID_30_);}
	.st31{fill:url(#SVGID_31_);}
	.st32{fill:url(#SVGID_32_);}
	.st33{fill:url(#SVGID_33_);}
	.st34{fill:url(#SVGID_34_);}
	.st35{fill:url(#SVGID_35_);}
	.st36{fill:url(#SVGID_36_);}
	.st37{fill:url(#SVGID_37_);}
	.st38{fill:url(#SVGID_38_);}
	.st39{fill:url(#SVGID_39_);}
	.st40{fill:url(#SVGID_40_);}
	.st41{fill:url(#SVGID_41_);}
	.st42{fill:url(#SVGID_42_);}
</style>
<rect x="-733.54" y="-36.92" class="st0" width="941.54" height="212.92"/>
<linearGradient id="SVGID_1_" gradientUnits="userSpaceOnUse" x1="159.0888" y1="113.5042" x2="44.4619" y2="17.3208">
	<stop  offset="0" style="stop-color:#19C5C7"/>
	<stop  offset="4.905283e-03" style="stop-color:#1AC5C6"/>
	<stop  offset="0.2448" style="stop-color:#4BCAAD"/>
	<stop  offset="0.4718" style="stop-color:#72CF9A"/>
	<stop  offset="0.68" style="stop-color:#8DD28C"/>
	<stop  offset="0.8626" style="stop-color:#9ED383"/>
	<stop  offset="1" style="stop-color:#A4D480"/>
</linearGradient>
<path class="st1" d="M155.79,34.15c2.1-0.22,3.85-1.25,5.25-3.09c1.4-1.84,1.98-3.97,1.73-6.39c-0.25-2.42-1.25-4.38-3-5.9
	c-1.75-1.52-3.68-2.17-5.78-1.95c-2.1,0.22-3.83,1.25-5.18,3.09c-1.35,1.84-1.9,3.97-1.65,6.38c0.25,2.42,1.23,4.39,2.92,5.91
	C151.79,33.71,153.69,34.37,155.79,34.15z M180.44,13.64c-1.7-1.52-3.6-2.18-5.7-1.96c-2.1,0.22-3.85,1.25-5.25,3.09
	c-1.4,1.84-1.98,3.98-1.73,6.39c0.25,2.42,1.25,4.39,3,5.9c1.75,1.52,3.67,2.17,5.78,1.95c2.1-0.22,3.83-1.25,5.18-3.09
	c1.35-1.84,1.9-3.97,1.65-6.38C183.11,17.14,182.13,15.17,180.44,13.64z M174.48,46.03L165.12,47c-4.04,0.42-6.79,4.24-5.96,8.22
	c0.03,0.15,0.06,0.29,0.09,0.44c0.54,2.65,0.95,5.34,1.23,8.07c0.34,3.25,0.43,6.56,0.29,9.93c-0.09,2.2-1.75,4.02-3.93,4.31l0,0
	c-2.09,0.28-4.07-0.93-4.81-2.9c-0.96-2.59-1.96-5.18-2.97-7.77c-1.44-3.67-3.01-7.25-4.7-10.74c-0.75-1.54-1.56-3.05-2.44-4.53
	c-1.97-3.32-5.86-5.01-9.65-4.29l-23.95,4.55c-4.24,0.81-7.34,4.46-7.45,8.77l0,0.09c-0.08,2.87,0.06,5.99,0.41,9.35
	c0.47,4.52,1.49,9.27,3.07,14.26c0.68,2.16,1.54,4.31,2.56,6.44c2.32,4.85,8.17,6.87,13.08,4.7l7.23-3.18
	c1.12-0.49,1.58-1.83,1.02-2.92c-1.7-3.38-2.97-6.61-3.83-9.67c-1.02-3.66-1.67-6.91-1.97-9.75v0c-0.28-2.7,3.29-3.88,4.71-1.57
	c2.74,4.45,4.34,8.94,4.81,13.48c0.62,5.99-0.82,11.79-4.33,17.41c-3.48,5.58-9.15,10.53-17.01,14.83
	c-0.06,0.03-0.06,0.12,0.01,0.14l23.02,7.93c2.22,0.77,3.19,0.59,3.86-0.04c2.56-2.4,4.82-5.43,6.77-9.07
	c2.21-4.15,3.91-8.76,5.07-13.85c0.01-0.03,0.03-0.06,0.07-0.06l9.4-0.97l0,0l5.45-0.56c10.2-1.06,18.16-9.29,18.88-19.52l0.01-0.2
	c0.46-6.79,0.38-13.18-0.24-19.17c-0.28-2.73-0.66-5.29-1.12-7.69v0C181.16,48.03,177.98,45.66,174.48,46.03z M65.27,34.15
	c2.1-0.22,3.85-1.25,5.25-3.09c1.4-1.84,1.98-3.97,1.73-6.39c-0.25-2.42-1.25-4.38-3-5.9c-1.75-1.52-3.68-2.17-5.78-1.95
	c-2.1,0.22-3.83,1.25-5.18,3.09c-1.35,1.84-1.9,3.97-1.65,6.38c0.25,2.42,1.23,4.39,2.92,5.91C61.27,33.71,63.17,34.37,65.27,34.15z
	 M89.92,13.64c-1.7-1.52-3.6-2.18-5.7-1.96c-2.1,0.22-3.85,1.25-5.25,3.09c-1.4,1.84-1.98,3.98-1.73,6.39c0.25,2.42,1.25,4.39,3,5.9
	c1.75,1.52,3.67,2.17,5.78,1.95c2.1-0.22,3.83-1.25,5.18-3.09c1.35-1.84,1.9-3.97,1.65-6.38C92.59,17.14,91.61,15.17,89.92,13.64z
	 M83.97,46.03L74.6,47c-4.04,0.42-6.79,4.24-5.96,8.22c0.03,0.15,0.06,0.29,0.09,0.44c0.54,2.65,0.95,5.34,1.23,8.07
	c0.34,3.25,0.43,6.56,0.29,9.93c-0.09,2.2-1.75,4.02-3.93,4.31l0,0c-2.09,0.28-4.07-0.93-4.81-2.9c-0.96-2.59-1.96-5.18-2.97-7.77
	c-1.44-3.67-3.01-7.25-4.7-10.74c-0.75-1.54-1.56-3.05-2.44-4.53c-1.97-3.32-5.86-5.01-9.65-4.29l-23.95,4.55
	c-4.24,0.81-7.34,4.46-7.45,8.77l0,0.09c-0.08,2.87,0.06,5.99,0.41,9.35c0.47,4.52,1.49,9.27,3.07,14.26
	c0.68,2.16,1.54,4.31,2.56,6.44c2.32,4.85,8.17,6.87,13.08,4.7l7.23-3.18c1.12-0.49,1.58-1.83,1.02-2.92
	c-1.7-3.38-2.97-6.61-3.83-9.67c-1.02-3.66-1.67-6.91-1.97-9.75v0c-0.28-2.7,3.29-3.88,4.71-1.57c2.74,4.45,4.34,8.94,4.81,13.48
	c0.62,5.99-0.82,11.79-4.33,17.41c-3.48,5.58-9.15,10.53-17.01,14.83c-0.06,0.03-0.06,0.12,0.01,0.14l23.02,7.93
	c2.22,0.77,3.19,0.59,3.86-0.04c2.56-2.4,4.82-5.43,6.77-9.07c2.21-4.15,3.91-8.76,5.07-13.85c0.01-0.03,0.03-0.06,0.07-0.06
	l9.4-0.97l0,0l5.45-0.56c10.2-1.06,18.16-9.29,18.88-19.52l0.01-0.2c0.46-6.79,0.38-13.18-0.24-19.17
	c-0.28-2.73-0.66-5.29-1.12-7.69v0C90.65,48.03,87.46,45.66,83.97,46.03z"/>
</svg>
