<?xml version="1.0" encoding="utf-8"?>
<!-- Generator: Adobe Illustrator 24.3.0, SVG Export Plug-In . SVG Version: 6.00 Build 0)  -->
<svg version="1.1" id="Layer_1" xmlns="http://www.w3.org/2000/svg" xmlns:xlink="http://www.w3.org/1999/xlink" x="0px" y="0px"
	 viewBox="0 0 193.82 134.77" style="enable-background:new 0 0 193.82 134.77;" xml:space="preserve">
<style type="text/css">
	.st0{fill:#FFFFFF;stroke:#F8FFFA;stroke-miterlimit:10;}
	.st1{fill:url(#SVGID_1_);}
	.st2{fill:url(#SVGID_2_);}
	.st3{fill:url(#SVGID_3_);}
	.st4{fill:url(#SVGID_4_);}
	.st5{fill:url(#SVGID_5_);}
	.st6{fill:url(#SVGID_6_);}
	.st7{fill:url(#SVGID_7_);}
	.st8{fill:url(#SVGID_8_);}
	.st9{fill:url(#SVGID_9_);}
	.st10{fill:url(#SVGID_10_);}
	.st11{fill:url(#SVGID_11_);}
	.st12{fill:url(#SVGID_12_);}
	.st13{fill:url(#SVGID_13_);}
	.st14{fill:url(#SVGID_14_);}
	.st15{fill:url(#SVGID_15_);}
	.st16{fill:url(#SVGID_16_);}
	.st17{fill:url(#SVGID_17_);}
	.st18{fill:url(#SVGID_18_);}
	.st19{fill:url(#SVGID_19_);}
	.st20{fill:url(#SVGID_20_);}
	.st21{fill:url(#SVGID_21_);}
	.st22{fill:url(#SVGID_22_);}
	.st23{fill:url(#SVGID_23_);}
	.st24{fill:url(#SVGID_24_);}
	.st25{fill:url(#SVGID_25_);}
	.st26{fill:url(#SVGID_26_);}
	.st27{fill:url(#SVGID_27_);}
	.st28{fill:url(#SVGID_28_);}
	.st29{fill:url(#SVGID_29_);}
	.st30{fill:url(#SVGID_30_);}
	.st31{fill:url(#SVGID_31_);}
	.st32{fill:url(#SVGID_32_);}
	.st33{fill:url(#SVGID_33_);}
	.st34{fill:url(#SVGID_34_);}
	.st35{fill:url(#SVGID_35_);}
	.st36{fill:url(#SVGID_36_);}
	.st37{fill:url(#SVGID_37_);}
	.st38{fill:url(#SVGID_38_);}
	.st39{fill:url(#SVGID_39_);}
	.st40{fill:url(#SVGID_40_);}
	.st41{fill:url(#SVGID_41_);}
	.st42{fill:url(#SVGID_42_);}
</style>
<rect x="-484.31" y="-36.92" class="st0" width="941.54" height="212.92"/>
<g>
	<linearGradient id="SVGID_1_" gradientUnits="userSpaceOnUse" x1="159.1343" y1="113.538" x2="44.4235" y2="17.2841">
		<stop  offset="0" style="stop-color:#88EAAD"/>
		<stop  offset="1" style="stop-color:#2A9A9E"/>
	</linearGradient>
	<path class="st1" d="M155.83,34.12c2.1-0.22,3.86-1.25,5.26-3.1c1.4-1.84,1.98-3.98,1.73-6.4c-0.25-2.42-1.25-4.39-3-5.91
		c-1.75-1.52-3.68-2.17-5.78-1.95c-2.11,0.22-3.83,1.25-5.18,3.09c-1.35,1.84-1.9,3.97-1.65,6.39c0.25,2.42,1.23,4.39,2.93,5.91
		C151.83,33.69,153.73,34.34,155.83,34.12z M180.5,13.61c-1.7-1.52-3.6-2.18-5.7-1.96c-2.1,0.22-3.86,1.25-5.26,3.1
		c-1.4,1.85-1.98,3.98-1.73,6.4c0.25,2.42,1.25,4.39,3,5.91c1.75,1.52,3.68,2.17,5.78,1.95c2.1-0.22,3.83-1.25,5.18-3.09
		c1.35-1.84,1.9-3.97,1.65-6.39C183.17,17.1,182.19,15.13,180.5,13.61z M174.54,46.01l-9.37,0.97c-4.04,0.42-6.79,4.24-5.97,8.22
		c0.03,0.15,0.06,0.29,0.09,0.44c0.54,2.65,0.95,5.35,1.23,8.08c0.34,3.26,0.43,6.57,0.29,9.94c-0.09,2.2-1.75,4.02-3.93,4.32l0,0
		c-2.09,0.28-4.08-0.93-4.81-2.9c-0.97-2.59-1.96-5.19-2.97-7.78c-1.45-3.68-3.01-7.26-4.7-10.75c-0.75-1.54-1.56-3.05-2.44-4.53
		c-1.97-3.33-5.86-5.01-9.66-4.29l-23.97,4.56c-4.24,0.81-7.34,4.46-7.45,8.77l0,0.09c-0.08,2.88,0.06,6,0.41,9.36
		c0.47,4.52,1.49,9.28,3.07,14.27c0.68,2.16,1.54,4.31,2.56,6.45c2.32,4.85,8.17,6.87,13.09,4.7l7.24-3.18
		c1.12-0.49,1.58-1.83,1.03-2.92c-1.7-3.39-2.98-6.61-3.83-9.68c-1.02-3.67-1.67-6.92-1.97-9.76v0c-0.28-2.7,3.29-3.88,4.71-1.57
		c2.74,4.45,4.34,8.95,4.81,13.49c0.62,5.99-0.82,11.8-4.33,17.42c-3.49,5.59-9.16,10.54-17.02,14.85
		c-0.06,0.03-0.06,0.12,0.01,0.14l23.03,7.94c2.22,0.77,3.2,0.59,3.87-0.04c2.56-2.41,4.82-5.43,6.77-9.07
		c2.21-4.15,3.91-8.77,5.08-13.86c0.01-0.03,0.03-0.06,0.07-0.06l9.41-0.98l0,0l5.45-0.57c10.2-1.06,18.17-9.3,18.89-19.53l0.01-0.2
		c0.46-6.8,0.39-13.19-0.24-19.18c-0.28-2.73-0.66-5.3-1.12-7.7v0C181.23,48.02,178.03,45.65,174.54,46.01z M65.25,34.12
		c2.1-0.22,3.86-1.25,5.26-3.1c1.4-1.84,1.98-3.98,1.73-6.4c-0.25-2.42-1.25-4.39-3-5.91c-1.75-1.52-3.68-2.17-5.78-1.95
		c-2.11,0.22-3.83,1.25-5.18,3.09c-1.35,1.84-1.9,3.97-1.65,6.39c0.25,2.42,1.23,4.39,2.93,5.91
		C61.24,33.69,63.14,34.34,65.25,34.12z M89.91,13.61c-1.7-1.52-3.6-2.18-5.7-1.96c-2.1,0.22-3.86,1.25-5.26,3.1
		c-1.4,1.85-1.98,3.98-1.73,6.4c0.25,2.42,1.25,4.39,3,5.91c1.75,1.52,3.68,2.17,5.78,1.95c2.1-0.22,3.83-1.25,5.18-3.09
		c1.35-1.84,1.9-3.97,1.65-6.39C92.59,17.1,91.61,15.13,89.91,13.61z M83.96,46.01l-9.37,0.97c-4.04,0.42-6.79,4.24-5.97,8.22
		c0.03,0.15,0.06,0.29,0.09,0.44c0.54,2.65,0.95,5.35,1.23,8.08c0.34,3.26,0.43,6.57,0.29,9.94c-0.09,2.2-1.75,4.02-3.93,4.32h0
		c-2.09,0.28-4.08-0.93-4.81-2.9c-0.97-2.59-1.96-5.19-2.97-7.78c-1.45-3.68-3.01-7.26-4.7-10.75c-0.75-1.54-1.56-3.05-2.44-4.53
		c-1.97-3.33-5.86-5.01-9.66-4.29l-23.97,4.56c-4.24,0.81-7.34,4.46-7.45,8.77l0,0.09c-0.08,2.88,0.06,6,0.41,9.36
		c0.47,4.52,1.49,9.28,3.07,14.27c0.68,2.16,1.54,4.31,2.56,6.45c2.32,4.85,8.17,6.87,13.09,4.7l7.24-3.18
		c1.12-0.49,1.58-1.83,1.03-2.92c-1.7-3.39-2.98-6.61-3.83-9.68c-1.02-3.67-1.67-6.92-1.97-9.76v0c-0.28-2.7,3.29-3.88,4.71-1.57
		c2.74,4.45,4.34,8.95,4.81,13.49c0.62,5.99-0.82,11.8-4.33,17.42c-3.49,5.59-9.16,10.54-17.02,14.85
		c-0.06,0.03-0.06,0.12,0.01,0.14l23.03,7.94c2.22,0.77,3.2,0.59,3.87-0.04c2.56-2.41,4.82-5.43,6.77-9.07
		c2.21-4.15,3.91-8.77,5.08-13.86c0.01-0.03,0.03-0.06,0.07-0.06l9.41-0.98l0,0l5.45-0.57c10.2-1.06,18.17-9.3,18.89-19.53l0.01-0.2
		c0.46-6.8,0.39-13.19-0.24-19.18c-0.28-2.73-0.66-5.3-1.12-7.7l0,0C90.64,48.02,87.45,45.65,83.96,46.01z"/>
	<g>
		<g>
			<linearGradient id="SVGID_2_" gradientUnits="userSpaceOnUse" x1="145.6594" y1="24.9571" x2="164.364" y2="24.9571">
				<stop  offset="0" style="stop-color:#3F3EFF"/>
				<stop  offset="0.2093" style="stop-color:#326CD0"/>
				<stop  offset="0.5938" style="stop-color:#1ABA7E"/>
				<stop  offset="0.8666" style="stop-color:#0CEC4B"/>
				<stop  offset="1" style="stop-color:#06FF37"/>
			</linearGradient>
			<path class="st2" d="M155.82,33.97c1.06-0.09,2.11-0.42,2.99-1.02c0.89-0.59,1.61-1.4,2.16-2.3c1.13-1.8,1.42-3.91,1.11-5.9
				c-0.26-2.02-1.19-3.84-2.68-5.1c-1.49-1.31-3.33-1.97-5.16-1.7c-1.85,0.22-3.33,1.32-4.29,2.91c-0.98,1.55-1.38,3.29-1.27,5.19
				c0.1,1.88,0.56,3.71,1.79,5.34c0.61,0.81,1.37,1.52,2.3,1.99C153.68,33.84,154.75,34.06,155.82,33.97z M155.85,34.27
				c-1.09,0.14-2.24,0.11-3.35-0.2c-1.11-0.3-2.18-0.84-3.13-1.53c-0.96-0.69-1.83-1.61-2.46-2.69c-0.63-1.08-1.03-2.29-1.19-3.51
				c-0.16-1.21-0.13-2.5,0.18-3.75c0.3-1.25,0.88-2.43,1.64-3.43c0.76-0.99,1.7-1.88,2.84-2.53c1.12-0.65,2.41-1,3.65-1.07
				c1.25-0.08,2.54,0.13,3.69,0.61c1.16,0.48,2.15,1.21,3,2.04c1.74,1.67,2.73,4.06,2.85,6.37c0.18,2.32-0.6,4.72-2.08,6.42
				C160.06,32.76,158.07,34.02,155.85,34.27z"/>
			<linearGradient id="SVGID_3_" gradientUnits="userSpaceOnUse" x1="166.2631" y1="20.9068" x2="184.9659" y2="20.9068">
				<stop  offset="0" style="stop-color:#3F3EFF"/>
				<stop  offset="0.2093" style="stop-color:#326CD0"/>
				<stop  offset="0.5938" style="stop-color:#1ABA7E"/>
				<stop  offset="0.8666" style="stop-color:#0CEC4B"/>
				<stop  offset="1" style="stop-color:#06FF37"/>
			</linearGradient>
			<path class="st3" d="M180.4,13.72c-0.78-0.73-1.7-1.33-2.72-1.63c-1.02-0.31-2.11-0.32-3.13-0.09c-2.08,0.43-3.66,1.88-4.7,3.59
				c-1.08,1.69-1.39,3.72-1.05,5.67c0.3,1.96,1.27,3.68,2.77,4.87c0.75,0.6,1.57,1.06,2.42,1.3c0.85,0.24,1.73,0.25,2.6,0.09
				c1.73-0.3,3.11-1.3,4.21-2.82c1.07-1.45,1.73-3.24,1.8-5.31C182.71,17.35,181.99,15.19,180.4,13.72z M180.6,13.49
				c1.69,1.41,2.99,3.4,3.58,5.69c0.3,1.13,0.45,2.35,0.32,3.59c-0.13,1.24-0.55,2.48-1.21,3.56c-0.66,1.06-1.51,2.05-2.62,2.8
				c-1.1,0.75-2.42,1.19-3.7,1.31c-1.28,0.12-2.62-0.05-3.82-0.51c-1.21-0.46-2.26-1.18-3.14-2c-1.83-1.64-2.94-4.06-3.12-6.41
				c-0.26-2.34,0.32-4.86,1.74-6.75c0.7-0.93,1.55-1.76,2.56-2.36c1.01-0.6,2.15-0.94,3.28-1.01
				C176.73,11.18,178.95,12.04,180.6,13.49z"/>
			<linearGradient id="SVGID_4_" gradientUnits="userSpaceOnUse" x1="99.3776" y1="85.2482" x2="185.0308" y2="85.2482">
				<stop  offset="0" style="stop-color:#3F3EFF"/>
				<stop  offset="0.2093" style="stop-color:#326CD0"/>
				<stop  offset="0.5938" style="stop-color:#1ABA7E"/>
				<stop  offset="0.8666" style="stop-color:#0CEC4B"/>
				<stop  offset="1" style="stop-color:#06FF37"/>
			</linearGradient>
			<path class="st4" d="M174.56,46.16l-6.25,0.65c-2.06,0.29-4.27,0.14-6,1.33c-1.73,1.1-2.92,3.03-3.07,5.08
				c-0.11,1.03,0.13,2.03,0.34,3.07c0.2,1.03,0.38,2.06,0.54,3.1c0.66,4.14,1.04,8.35,0.98,12.55l-0.03,1.58
				c-0.01,0.54-0.1,1.1-0.29,1.61c-0.37,1.04-1.12,1.94-2.08,2.5c-0.96,0.57-2.11,0.78-3.21,0.6c-1.1-0.18-2.13-0.76-2.86-1.62
				c-0.37-0.42-0.65-0.92-0.85-1.44l-0.57-1.46l-1.15-2.92c-0.77-1.95-1.51-3.9-2.34-5.83c-1.65-3.83-3.35-7.68-5.44-11.27
				l-0.75-1.37c-0.26-0.42-0.54-0.82-0.87-1.2c-0.65-0.74-1.42-1.37-2.28-1.85c-1.71-0.97-3.75-1.31-5.68-0.98l-12.31,2.44
				l-12.3,2.41c-1.86,0.45-3.54,1.57-4.68,3.1c-1.16,1.54-1.72,3.4-1.68,5.39c-0.03,4.12,0.29,8.3,0.96,12.36
				c0.69,4.07,1.76,8.11,3.12,11.99c0.35,0.97,0.73,1.92,1.14,2.86c0.41,0.93,0.85,1.92,1.31,2.7c1,1.58,2.5,2.87,4.27,3.53
				c1.75,0.7,3.72,0.82,5.54,0.37l0.68-0.19l0.66-0.25c0.44-0.17,0.95-0.41,1.42-0.62l2.87-1.28l2.87-1.28
				c0.29-0.13,0.37-0.17,0.47-0.24c0.1-0.08,0.18-0.17,0.25-0.28c0.13-0.22,0.17-0.49,0.12-0.74c-0.01-0.06-0.03-0.12-0.05-0.19
				l-0.12-0.26l-0.36-0.72L126.17,88c-0.45-0.97-0.87-1.95-1.26-2.95c-0.79-1.98-1.45-4.06-1.98-6.11
				c-0.54-2.06-1.01-4.14-1.35-6.26c-0.08-0.53-0.16-1.06-0.23-1.6c-0.06-0.45-0.17-1.27,0.05-2.03c0.42-1.57,1.91-2.62,3.43-2.69
				c0.76-0.05,1.57,0.15,2.23,0.58c0.34,0.2,0.62,0.49,0.87,0.77l0.33,0.45l0.21,0.35c0.56,0.92,1.09,1.87,1.57,2.84
				c1.95,3.87,3.22,8.16,3.41,12.57c0.21,4.41-0.73,8.86-2.58,12.84c-1.81,3.98-4.46,7.59-7.59,10.59
				c-3.13,3.02-6.67,5.52-10.36,7.68l-1.39,0.79l-0.09,0.05c-0.01-0.04-0.21,0.23,0.4-0.36c0.36-0.48,0.4-1.14,0.05-1.67
				c-0.56-0.64-0.93-0.6-0.68-0.55l0.37,0.13l0.74,0.25l2.98,1.01l5.95,2.04l11.88,4.12c1.01,0.35,1.95,0.71,2.68,0.78
				c0.37,0.04,0.58,0,0.63-0.04c0.02-0.01,0.04-0.02,0.08-0.05c0.01,0,0.16-0.15,0.23-0.21l0.53-0.52c1.4-1.41,2.65-2.98,3.77-4.65
				c2.26-3.33,4.03-7.06,5.39-10.91c0.34-0.97,0.65-1.94,0.94-2.92l0.41-1.48l0.19-0.75l0.09-0.37l0.05-0.19l0.02-0.09
				c-0.02,0.17-0.03-0.31,0.48-0.8c0.66-0.41,0.89-0.28,0.78-0.3l0.1-0.01l0.2-0.02l0.39-0.04l0.78-0.07l1.56-0.15l3.13-0.29
				l6.26-0.55c2.13-0.18,4.1-0.33,6.02-0.85c3.84-1.07,7.37-3.3,10-6.37c2.59-3.08,4.33-6.94,4.75-11c0.41-4.13,0.59-8.33,0.52-12.5
				c-0.04-2.09-0.14-4.18-0.31-6.26c-0.18-2.08-0.52-4.14-0.79-6.22c-0.17-1.02-0.23-2.1-0.48-3.08c-0.28-0.98-0.79-1.88-1.47-2.64
				c-0.69-0.75-1.55-1.34-2.51-1.71C176.62,46.21,175.58,46.07,174.56,46.16z M174.53,45.86c1.07-0.11,2.16,0.02,3.17,0.39
				c1,0.38,1.92,0.99,2.66,1.77c0.73,0.79,1.29,1.75,1.59,2.78c0.15,0.53,0.22,1.04,0.3,1.56l0.24,1.56
				c0.29,2.08,0.7,4.15,0.92,6.24c0.21,2.09,0.37,4.19,0.46,6.29c0.17,4.21,0.17,8.41-0.11,12.63c-0.29,4.3-1.99,8.49-4.67,11.91
				c-2.71,3.4-6.46,5.98-10.66,7.31c-2.1,0.66-4.33,0.91-6.37,1.15l-6.24,0.75l-3.12,0.36l-1.56,0.18l-0.78,0.09l-0.39,0.04
				l-0.2,0.02l-0.1,0.01c-0.17-0.01-0.01,0.11,0.59-0.26c0.46-0.45,0.45-0.86,0.41-0.63l-0.02,0.1l-0.04,0.2l-0.09,0.39l-0.19,0.78
				l-0.4,1.55c-0.28,1.03-0.59,2.06-0.92,3.08c-1.34,4.07-3.11,8.03-5.48,11.69c-1.21,1.81-2.56,3.54-4.11,5.11l-0.59,0.58
				c-0.12,0.11-0.15,0.16-0.35,0.32c-0.16,0.14-0.36,0.28-0.56,0.4c-0.87,0.49-1.76,0.49-2.42,0.42c-1.36-0.16-2.39-0.6-3.35-0.92
				l-11.9-4.07l-5.94-2.06l-2.97-1.03l-0.74-0.26l-0.37-0.13c0.19,0.03-0.26,0.06-0.85-0.64c-0.39-0.59-0.35-1.32,0.06-1.86
				c0.65-0.64,0.52-0.39,0.56-0.46l0.08-0.05l1.34-0.75c3.55-2.04,6.92-4.4,9.84-7.19c2.95-2.77,5.38-6.01,7.08-9.64
				c1.72-3.61,2.6-7.58,2.46-11.55c-0.13-3.98-1.23-7.93-3.01-11.55c-0.44-0.91-0.93-1.8-1.45-2.67l-0.19-0.33l-0.13-0.18
				c-0.09-0.11-0.18-0.21-0.3-0.27c-0.21-0.14-0.47-0.22-0.75-0.21c-0.57,0.02-1.12,0.41-1.24,0.9c-0.07,0.26-0.06,0.5,0.01,1.09
				c0.06,0.51,0.12,1.01,0.2,1.52c0.3,2.02,0.74,4.04,1.24,6.04c0.5,2.02,1.09,3.94,1.84,5.86c0.37,0.96,0.77,1.9,1.19,2.84
				l0.65,1.4l0.34,0.7l0.09,0.18l0.12,0.27c0.07,0.19,0.12,0.37,0.16,0.57c0.15,0.78,0,1.61-0.42,2.29
				c-0.21,0.34-0.48,0.64-0.8,0.88c-0.32,0.24-0.72,0.42-0.91,0.5l-2.88,1.25l-2.88,1.25c-0.49,0.21-0.93,0.42-1.47,0.63l-0.81,0.3
				l-0.84,0.23c-2.25,0.53-4.66,0.36-6.79-0.51c-2.15-0.84-3.99-2.43-5.21-4.4c-0.59-1.04-0.98-1.97-1.41-2.96
				c-0.42-0.98-0.8-1.98-1.16-2.99c-1.36-4.04-2.41-8.14-3.09-12.34c-0.66-4.21-0.94-8.43-0.87-12.69c0.01-1.05,0.13-2.27,0.49-3.34
				c0.35-1.09,0.88-2.12,1.58-3.02c1.38-1.82,3.41-3.14,5.63-3.65l12.4-2.32l12.39-2.24c2.21-0.33,4.53,0.09,6.45,1.23
				c0.96,0.56,1.83,1.29,2.54,2.14c0.36,0.43,0.67,0.89,0.95,1.36l0.74,1.4c2.07,3.7,3.7,7.57,5.29,11.46
				c0.79,1.95,1.51,3.92,2.24,5.88l1.1,2.95l0.55,1.47c0.17,0.46,0.41,0.89,0.72,1.27c0.62,0.75,1.52,1.28,2.48,1.45
				c0.96,0.18,1.99,0,2.85-0.49c0.86-0.49,1.54-1.28,1.88-2.21c0.37-0.92,0.28-1.98,0.34-3.03c0.11-4.18-0.18-8.36-0.83-12.5
				c-0.16-1.03-0.34-2.06-0.54-3.09c-0.2-1.01-0.45-2.08-0.34-3.15c0.16-2.14,1.39-4.16,3.2-5.3c0.9-0.58,1.94-0.94,3-1.05
				l3.13-0.32L174.53,45.86z"/>
		</g>
		<g>
			<linearGradient id="SVGID_5_" gradientUnits="userSpaceOnUse" x1="55.0758" y1="24.9571" x2="73.7804" y2="24.9571">
				<stop  offset="0" style="stop-color:#3F3EFF"/>
				<stop  offset="0.2093" style="stop-color:#326CD0"/>
				<stop  offset="0.5938" style="stop-color:#1ABA7E"/>
				<stop  offset="0.8666" style="stop-color:#0CEC4B"/>
				<stop  offset="1" style="stop-color:#06FF37"/>
			</linearGradient>
			<path class="st5" d="M65.24,33.97c1.06-0.09,2.11-0.42,2.99-1.02c0.89-0.59,1.61-1.4,2.16-2.3c1.13-1.8,1.42-3.91,1.11-5.9
				c-0.26-2.02-1.19-3.84-2.68-5.1c-1.49-1.31-3.33-1.97-5.16-1.7c-1.85,0.22-3.33,1.32-4.29,2.91c-0.98,1.55-1.38,3.29-1.27,5.19
				c0.1,1.88,0.56,3.71,1.79,5.34c0.61,0.81,1.37,1.52,2.3,1.99C63.1,33.84,64.17,34.06,65.24,33.97z M65.27,34.27
				c-1.09,0.14-2.24,0.11-3.35-0.2c-1.11-0.3-2.18-0.84-3.13-1.53c-0.96-0.69-1.83-1.61-2.46-2.69c-0.63-1.08-1.03-2.29-1.19-3.51
				c-0.16-1.21-0.13-2.5,0.18-3.75c0.3-1.25,0.88-2.43,1.64-3.43c0.76-0.99,1.7-1.88,2.84-2.53c1.12-0.65,2.41-1,3.65-1.07
				c1.25-0.08,2.54,0.13,3.69,0.61c1.16,0.48,2.15,1.21,3,2.04c1.74,1.67,2.73,4.06,2.85,6.37c0.18,2.32-0.6,4.72-2.08,6.42
				C69.48,32.76,67.48,34.02,65.27,34.27z"/>
			<linearGradient id="SVGID_6_" gradientUnits="userSpaceOnUse" x1="75.6795" y1="20.9068" x2="94.3823" y2="20.9068">
				<stop  offset="0" style="stop-color:#3F3EFF"/>
				<stop  offset="0.2093" style="stop-color:#326CD0"/>
				<stop  offset="0.5938" style="stop-color:#1ABA7E"/>
				<stop  offset="0.8666" style="stop-color:#0CEC4B"/>
				<stop  offset="1" style="stop-color:#06FF37"/>
			</linearGradient>
			<path class="st6" d="M89.81,13.72c-0.78-0.73-1.7-1.33-2.72-1.63c-1.02-0.31-2.11-0.32-3.13-0.09c-2.08,0.43-3.66,1.88-4.7,3.59
				c-1.08,1.69-1.39,3.72-1.05,5.67c0.3,1.96,1.27,3.68,2.77,4.87c0.75,0.6,1.57,1.06,2.42,1.3c0.85,0.24,1.73,0.25,2.6,0.09
				c1.73-0.3,3.11-1.3,4.21-2.82c1.07-1.45,1.73-3.24,1.8-5.31C92.13,17.35,91.4,15.19,89.81,13.72z M90.01,13.49
				c1.69,1.41,2.99,3.4,3.58,5.69c0.3,1.13,0.45,2.35,0.32,3.59c-0.13,1.24-0.55,2.48-1.21,3.56c-0.66,1.06-1.51,2.05-2.62,2.8
				c-1.1,0.75-2.42,1.19-3.7,1.31c-1.28,0.12-2.62-0.05-3.82-0.51c-1.21-0.46-2.26-1.18-3.14-2c-1.83-1.64-2.94-4.06-3.12-6.41
				c-0.26-2.34,0.32-4.86,1.74-6.75c0.7-0.93,1.55-1.76,2.56-2.36c1.01-0.6,2.15-0.94,3.28-1.01
				C86.15,11.18,88.36,12.04,90.01,13.49z"/>
			<linearGradient id="SVGID_7_" gradientUnits="userSpaceOnUse" x1="8.794" y1="85.2482" x2="94.4472" y2="85.2482">
				<stop  offset="0" style="stop-color:#3F3EFF"/>
				<stop  offset="0.2093" style="stop-color:#326CD0"/>
				<stop  offset="0.5938" style="stop-color:#1ABA7E"/>
				<stop  offset="0.8666" style="stop-color:#0CEC4B"/>
				<stop  offset="1" style="stop-color:#06FF37"/>
			</linearGradient>
			<path class="st7" d="M83.97,46.16l-6.25,0.65c-2.06,0.29-4.27,0.14-6,1.33c-1.73,1.1-2.92,3.03-3.07,5.08
				c-0.11,1.03,0.13,2.03,0.34,3.07c0.2,1.03,0.38,2.06,0.54,3.1c0.66,4.14,1.04,8.35,0.98,12.55l-0.03,1.58
				c-0.01,0.54-0.1,1.1-0.29,1.61c-0.37,1.04-1.12,1.94-2.08,2.5c-0.96,0.57-2.11,0.78-3.21,0.6c-1.1-0.18-2.13-0.76-2.86-1.62
				c-0.37-0.42-0.65-0.92-0.85-1.44l-0.57-1.46l-1.15-2.92c-0.77-1.95-1.51-3.9-2.34-5.83c-1.65-3.83-3.35-7.68-5.44-11.27
				l-0.75-1.37c-0.26-0.42-0.54-0.82-0.87-1.2c-0.65-0.74-1.42-1.37-2.28-1.85c-1.71-0.97-3.75-1.31-5.68-0.98L29.8,50.75
				l-12.3,2.41c-1.86,0.45-3.54,1.57-4.68,3.1c-1.16,1.54-1.72,3.4-1.68,5.39c-0.03,4.12,0.29,8.3,0.96,12.36
				c0.69,4.07,1.76,8.11,3.12,11.99c0.35,0.97,0.73,1.92,1.14,2.86c0.41,0.93,0.85,1.92,1.31,2.7c1,1.58,2.5,2.87,4.27,3.53
				c1.75,0.7,3.72,0.82,5.54,0.37l0.68-0.19l0.66-0.25c0.44-0.17,0.95-0.41,1.42-0.62l2.87-1.28l2.87-1.28
				c0.29-0.13,0.37-0.17,0.47-0.24c0.1-0.08,0.18-0.17,0.25-0.28c0.13-0.22,0.17-0.49,0.12-0.74c-0.01-0.06-0.03-0.12-0.05-0.19
				l-0.12-0.26l-0.36-0.72L35.59,88c-0.45-0.97-0.87-1.95-1.26-2.95c-0.79-1.98-1.45-4.06-1.98-6.11c-0.54-2.06-1.01-4.14-1.35-6.26
				c-0.08-0.53-0.16-1.06-0.23-1.6c-0.06-0.45-0.17-1.27,0.05-2.03c0.42-1.57,1.91-2.62,3.43-2.69c0.76-0.05,1.57,0.15,2.23,0.58
				c0.34,0.2,0.62,0.49,0.87,0.77l0.33,0.45l0.21,0.35c0.56,0.92,1.09,1.87,1.57,2.84c1.95,3.87,3.22,8.16,3.41,12.57
				c0.21,4.41-0.73,8.86-2.58,12.84c-1.81,3.98-4.46,7.59-7.59,10.59c-3.13,3.02-6.67,5.52-10.36,7.68l-1.39,0.79l-0.09,0.05
				c-0.01-0.04-0.21,0.23,0.4-0.36c0.36-0.48,0.4-1.14,0.05-1.67c-0.56-0.64-0.93-0.6-0.68-0.55l0.37,0.13l0.74,0.25l2.98,1.01
				l5.95,2.04l11.88,4.12c1.01,0.35,1.95,0.71,2.68,0.78c0.37,0.04,0.58,0,0.63-0.04c0.02-0.01,0.04-0.02,0.08-0.05
				c0.01,0,0.16-0.15,0.23-0.21l0.53-0.52c1.4-1.41,2.65-2.98,3.77-4.65c2.26-3.33,4.03-7.06,5.39-10.91
				c0.34-0.97,0.65-1.94,0.94-2.92l0.41-1.48l0.19-0.75l0.09-0.37l0.05-0.19l0.02-0.09c-0.02,0.17-0.03-0.31,0.48-0.8
				c0.66-0.41,0.89-0.28,0.78-0.3l0.1-0.01l0.2-0.02l0.39-0.04l0.78-0.07l1.56-0.15l3.13-0.29l6.26-0.55
				c2.13-0.18,4.1-0.33,6.02-0.85c3.84-1.07,7.37-3.3,10-6.37c2.59-3.08,4.33-6.94,4.75-11c0.41-4.13,0.59-8.33,0.52-12.5
				c-0.04-2.09-0.14-4.18-0.31-6.26c-0.18-2.08-0.52-4.14-0.79-6.22c-0.17-1.02-0.23-2.1-0.48-3.08c-0.28-0.98-0.79-1.88-1.47-2.64
				c-0.69-0.75-1.55-1.34-2.5-1.71C86.03,46.21,84.99,46.07,83.97,46.16z M83.94,45.86c1.07-0.11,2.16,0.02,3.17,0.39
				c1,0.38,1.92,0.99,2.66,1.77c0.73,0.79,1.29,1.75,1.59,2.78c0.15,0.53,0.22,1.04,0.3,1.56l0.24,1.56
				c0.29,2.08,0.7,4.15,0.92,6.24c0.21,2.09,0.37,4.19,0.46,6.29c0.17,4.21,0.17,8.41-0.11,12.63c-0.29,4.3-1.99,8.49-4.67,11.91
				c-2.71,3.4-6.46,5.98-10.66,7.31c-2.1,0.66-4.33,0.91-6.37,1.15l-6.24,0.75l-3.12,0.36l-1.56,0.18l-0.78,0.09l-0.39,0.04
				l-0.2,0.02l-0.1,0.01c-0.17-0.01-0.01,0.11,0.59-0.26c0.46-0.45,0.45-0.86,0.41-0.63l-0.02,0.1l-0.04,0.2l-0.09,0.39l-0.19,0.78
				l-0.4,1.55c-0.28,1.03-0.59,2.06-0.92,3.08c-1.34,4.07-3.11,8.03-5.48,11.69c-1.21,1.81-2.56,3.54-4.11,5.11l-0.59,0.58
				c-0.12,0.11-0.15,0.16-0.35,0.32c-0.16,0.14-0.36,0.28-0.56,0.4c-0.87,0.49-1.76,0.49-2.42,0.42c-1.36-0.16-2.39-0.6-3.35-0.92
				l-11.9-4.07l-5.94-2.06l-2.97-1.03L20,116.3l-0.37-0.13c0.19,0.03-0.26,0.06-0.85-0.64c-0.39-0.59-0.35-1.32,0.06-1.86
				c0.65-0.64,0.52-0.39,0.56-0.46l0.08-0.05l1.34-0.75c3.55-2.04,6.92-4.4,9.84-7.19c2.95-2.77,5.38-6.01,7.08-9.64
				c1.72-3.61,2.6-7.58,2.46-11.55c-0.13-3.98-1.23-7.93-3.01-11.55c-0.44-0.91-0.93-1.8-1.45-2.67l-0.19-0.33l-0.13-0.18
				c-0.09-0.11-0.18-0.21-0.3-0.27c-0.21-0.14-0.47-0.22-0.75-0.21c-0.57,0.02-1.12,0.41-1.24,0.9c-0.07,0.26-0.06,0.5,0.01,1.09
				c0.06,0.51,0.12,1.01,0.2,1.52c0.3,2.02,0.74,4.04,1.24,6.04c0.5,2.02,1.09,3.94,1.84,5.86c0.37,0.96,0.77,1.9,1.19,2.84
				l0.65,1.4l0.34,0.7l0.09,0.18l0.12,0.27c0.07,0.19,0.12,0.37,0.16,0.57c0.15,0.78,0,1.61-0.42,2.29
				c-0.21,0.34-0.48,0.64-0.8,0.88c-0.32,0.24-0.72,0.42-0.91,0.5l-2.88,1.25l-2.88,1.25c-0.49,0.21-0.93,0.42-1.47,0.63l-0.81,0.3
				l-0.84,0.23c-2.25,0.53-4.66,0.36-6.79-0.51c-2.15-0.84-3.99-2.43-5.21-4.4c-0.59-1.04-0.98-1.97-1.41-2.96
				c-0.42-0.98-0.8-1.98-1.15-2.99c-1.36-4.04-2.41-8.14-3.09-12.34c-0.66-4.21-0.94-8.43-0.87-12.69c0.01-1.05,0.13-2.27,0.49-3.34
				c0.35-1.09,0.88-2.12,1.58-3.02c1.38-1.82,3.41-3.14,5.63-3.65l12.4-2.32l12.39-2.24c2.21-0.33,4.53,0.09,6.45,1.23
				c0.96,0.56,1.83,1.29,2.54,2.14c0.36,0.43,0.67,0.89,0.95,1.36l0.74,1.4c2.07,3.7,3.7,7.57,5.29,11.46
				c0.79,1.95,1.51,3.92,2.24,5.88l1.1,2.95l0.55,1.47c0.17,0.46,0.41,0.89,0.72,1.27c0.62,0.75,1.52,1.28,2.48,1.45
				c0.96,0.18,1.99,0,2.85-0.49c0.86-0.49,1.54-1.28,1.88-2.21c0.37-0.92,0.28-1.98,0.34-3.03c0.11-4.18-0.18-8.36-0.83-12.5
				c-0.16-1.03-0.34-2.06-0.54-3.09c-0.2-1.01-0.45-2.08-0.34-3.15c0.16-2.14,1.39-4.16,3.2-5.3c0.9-0.58,1.94-0.94,3-1.05
				l3.13-0.32L83.94,45.86z"/>
		</g>
	</g>
</g>
</svg>
