<?xml version="1.0" encoding="utf-8"?>
<!-- Generator: Adobe Illustrator 24.3.0, SVG Export Plug-In . SVG Version: 6.00 Build 0)  -->
<svg version="1.1" id="Layer_1" xmlns="http://www.w3.org/2000/svg" xmlns:xlink="http://www.w3.org/1999/xlink" x="0px" y="0px"
	 viewBox="0 0 193.82 134.77" style="enable-background:new 0 0 193.82 134.77;" xml:space="preserve">
<style type="text/css">
	.st0{fill:#FFFFFF;stroke:#F8FFFA;stroke-miterlimit:10;}
	.st1{fill:url(#SVGID_1_);}
	.st2{fill:url(#SVGID_2_);}
	.st3{fill:url(#SVGID_3_);}
	.st4{fill:url(#SVGID_4_);}
	.st5{fill:url(#SVGID_5_);}
	.st6{fill:url(#SVGID_6_);}
	.st7{fill:url(#SVGID_7_);}
	.st8{fill:url(#SVGID_8_);}
	.st9{fill:url(#SVGID_9_);}
	.st10{fill:url(#SVGID_10_);}
	.st11{fill:url(#SVGID_11_);}
	.st12{fill:url(#SVGID_12_);}
	.st13{fill:url(#SVGID_13_);}
	.st14{fill:url(#SVGID_14_);}
	.st15{fill:url(#SVGID_15_);}
	.st16{fill:url(#SVGID_16_);}
	.st17{fill:url(#SVGID_17_);}
	.st18{fill:url(#SVGID_18_);}
	.st19{fill:url(#SVGID_19_);}
	.st20{fill:url(#SVGID_20_);}
	.st21{fill:url(#SVGID_21_);}
	.st22{fill:url(#SVGID_22_);}
	.st23{fill:url(#SVGID_23_);}
	.st24{fill:url(#SVGID_24_);}
	.st25{fill:url(#SVGID_25_);}
	.st26{fill:url(#SVGID_26_);}
	.st27{fill:url(#SVGID_27_);}
	.st28{fill:url(#SVGID_28_);}
	.st29{fill:url(#SVGID_29_);}
	.st30{fill:url(#SVGID_30_);}
	.st31{fill:url(#SVGID_31_);}
	.st32{fill:url(#SVGID_32_);}
	.st33{fill:url(#SVGID_33_);}
	.st34{fill:url(#SVGID_34_);}
	.st35{fill:url(#SVGID_35_);}
	.st36{fill:url(#SVGID_36_);}
	.st37{fill:url(#SVGID_37_);}
	.st38{fill:url(#SVGID_38_);}
	.st39{fill:url(#SVGID_39_);}
	.st40{fill:url(#SVGID_40_);}
	.st41{fill:url(#SVGID_41_);}
	.st42{fill:url(#SVGID_42_);}
</style>
<rect x="-238.77" y="-36.92" class="st0" width="941.54" height="212.92"/>
<g>
	<linearGradient id="SVGID_1_" gradientUnits="userSpaceOnUse" x1="159.1799" y1="113.5718" x2="44.385" y2="17.2474">
		<stop  offset="0" style="stop-color:#006837"/>
		<stop  offset="0.057" style="stop-color:#0F7342"/>
		<stop  offset="0.3006" style="stop-color:#49A06D"/>
		<stop  offset="0.5253" style="stop-color:#77C390"/>
		<stop  offset="0.7239" style="stop-color:#98DDA8"/>
		<stop  offset="0.8889" style="stop-color:#ACECB8"/>
		<stop  offset="1" style="stop-color:#B3F2BD"/>
	</linearGradient>
	<path class="st1" d="M155.88,34.1c2.1-0.22,3.86-1.25,5.26-3.1c1.4-1.85,1.98-3.98,1.73-6.4c-0.25-2.42-1.25-4.39-3.01-5.91
		c-1.75-1.52-3.68-2.17-5.79-1.95c-2.11,0.22-3.83,1.25-5.18,3.09c-1.35,1.84-1.9,3.97-1.65,6.39c0.25,2.42,1.23,4.39,2.93,5.92
		C151.87,33.66,153.77,34.32,155.88,34.1z M180.56,13.57c-1.7-1.52-3.6-2.18-5.71-1.96c-2.11,0.22-3.86,1.25-5.26,3.1
		c-1.4,1.85-1.98,3.98-1.73,6.4c0.25,2.42,1.25,4.39,3.01,5.91c1.75,1.52,3.68,2.17,5.79,1.95c2.1-0.22,3.83-1.25,5.18-3.09
		c1.35-1.84,1.9-3.97,1.65-6.39C183.23,17.06,182.26,15.09,180.56,13.57z M174.6,46l-9.38,0.97c-4.04,0.42-6.8,4.25-5.97,8.23
		c0.03,0.15,0.06,0.29,0.09,0.44c0.54,2.65,0.95,5.35,1.24,8.09c0.34,3.26,0.43,6.57,0.29,9.95c-0.09,2.2-1.75,4.03-3.93,4.32l0,0
		c-2.09,0.28-4.08-0.93-4.81-2.9c-0.97-2.6-1.96-5.19-2.97-7.78c-1.45-3.68-3.01-7.26-4.7-10.76C143.69,55,142.88,53.48,142,52
		c-1.97-3.33-5.87-5.02-9.67-4.29l-23.99,4.56c-4.24,0.81-7.35,4.46-7.46,8.78l0,0.09c-0.08,2.88,0.06,6,0.41,9.37
		c0.47,4.53,1.49,9.28,3.08,14.28c0.68,2.16,1.54,4.31,2.56,6.45c2.32,4.85,8.18,6.88,13.1,4.71l7.24-3.19
		c1.12-0.49,1.58-1.83,1.03-2.93c-1.7-3.39-2.98-6.62-3.83-9.69c-1.02-3.67-1.68-6.92-1.97-9.77l0,0c-0.28-2.7,3.29-3.88,4.72-1.57
		c2.74,4.46,4.35,8.96,4.82,13.5c0.62,6-0.82,11.81-4.33,17.44c-3.49,5.59-9.17,10.54-17.04,14.86c-0.06,0.03-0.06,0.12,0.01,0.14
		l23.05,7.95c2.22,0.77,3.2,0.59,3.87-0.04c2.57-2.41,4.82-5.44,6.78-9.08c2.22-4.15,3.91-8.78,5.08-13.87
		c0.01-0.03,0.03-0.06,0.07-0.06l9.41-0.98l0,0l5.45-0.57c10.21-1.06,18.19-9.3,18.9-19.55l0.01-0.2c0.46-6.8,0.39-13.2-0.24-19.2
		c-0.28-2.74-0.66-5.3-1.12-7.7v0C181.29,48,178.09,45.63,174.6,46z M65.23,34.1c2.1-0.22,3.86-1.25,5.26-3.1
		c1.4-1.85,1.98-3.98,1.73-6.4c-0.25-2.42-1.25-4.39-3.01-5.91c-1.75-1.52-3.68-2.17-5.79-1.95c-2.11,0.22-3.83,1.25-5.18,3.09
		c-1.35,1.84-1.9,3.97-1.65,6.39c0.25,2.42,1.23,4.39,2.93,5.92C61.22,33.66,63.12,34.32,65.23,34.1z M89.91,13.57
		c-1.7-1.52-3.6-2.18-5.71-1.96c-2.11,0.22-3.86,1.25-5.26,3.1c-1.4,1.85-1.98,3.98-1.73,6.4c0.25,2.42,1.25,4.39,3.01,5.91
		c1.75,1.52,3.68,2.17,5.79,1.95c2.1-0.22,3.83-1.25,5.18-3.09c1.35-1.84,1.9-3.97,1.65-6.39C92.58,17.06,91.61,15.09,89.91,13.57z
		 M83.95,46l-9.38,0.97c-4.04,0.42-6.8,4.25-5.97,8.23c0.03,0.15,0.06,0.29,0.09,0.44c0.54,2.65,0.95,5.35,1.24,8.09
		c0.34,3.26,0.43,6.57,0.29,9.95c-0.09,2.2-1.75,4.03-3.93,4.32l0,0c-2.09,0.28-4.08-0.93-4.81-2.9c-0.97-2.6-1.96-5.19-2.97-7.78
		c-1.45-3.68-3.01-7.26-4.7-10.76C53.04,55,52.23,53.48,51.35,52c-1.97-3.33-5.87-5.02-9.67-4.29L17.7,52.27
		c-4.24,0.81-7.35,4.46-7.46,8.78l0,0.09c-0.08,2.88,0.06,6,0.41,9.37c0.47,4.53,1.49,9.28,3.08,14.28
		c0.68,2.16,1.54,4.31,2.56,6.45c2.32,4.85,8.18,6.88,13.1,4.71l7.24-3.19c1.12-0.49,1.58-1.83,1.03-2.93
		c-1.7-3.39-2.98-6.62-3.83-9.69c-1.02-3.67-1.68-6.92-1.97-9.77l0,0c-0.28-2.7,3.29-3.88,4.72-1.57c2.74,4.46,4.35,8.96,4.82,13.5
		c0.62,6-0.82,11.81-4.33,17.44c-3.49,5.59-9.17,10.54-17.04,14.86c-0.06,0.03-0.06,0.12,0.01,0.14l23.05,7.95
		c2.22,0.77,3.2,0.59,3.87-0.04c2.57-2.41,4.82-5.44,6.78-9.08c2.22-4.15,3.91-8.78,5.08-13.87c0.01-0.03,0.03-0.06,0.07-0.06
		l9.41-0.98l0,0l5.45-0.57c10.21-1.06,18.19-9.3,18.9-19.55l0.01-0.2c0.46-6.8,0.39-13.2-0.24-19.2c-0.28-2.74-0.66-5.3-1.12-7.7v0
		C90.64,48,87.44,45.63,83.95,46z"/>
	<g>
		<g>
			<linearGradient id="SVGID_2_" gradientUnits="userSpaceOnUse" x1="151.1074" y1="34.7151" x2="157.9919" y2="15.8002">
				<stop  offset="0" style="stop-color:#E9003E;stop-opacity:0.7"/>
				<stop  offset="0.0314" style="stop-color:#DE0A47;stop-opacity:0.7094"/>
				<stop  offset="0.2363" style="stop-color:#9C467E;stop-opacity:0.7709"/>
				<stop  offset="0.431" style="stop-color:#6479AC;stop-opacity:0.8293"/>
				<stop  offset="0.61" style="stop-color:#39A0D0;stop-opacity:0.883"/>
				<stop  offset="0.7702" style="stop-color:#1ABDEA;stop-opacity:0.931"/>
				<stop  offset="0.9055" style="stop-color:#07CEF9;stop-opacity:0.9717"/>
				<stop  offset="1" style="stop-color:#00D4FF"/>
			</linearGradient>
			<path class="st2" d="M155.86,33.95c1.06-0.09,2.11-0.42,3-1.02c0.89-0.59,1.61-1.4,2.16-2.3c1.13-1.8,1.42-3.91,1.11-5.91
				c-0.26-2.02-1.19-3.84-2.68-5.1c-1.49-1.31-3.34-1.97-5.16-1.71c-1.85,0.22-3.33,1.32-4.3,2.92c-0.99,1.55-1.38,3.3-1.27,5.19
				c0.1,1.88,0.56,3.72,1.79,5.34c0.61,0.81,1.37,1.52,2.3,1.99C153.73,33.82,154.8,34.04,155.86,33.95z M155.89,34.25
				c-1.09,0.14-2.24,0.11-3.35-0.2c-1.11-0.3-2.18-0.84-3.14-1.53c-0.96-0.69-1.83-1.61-2.46-2.69c-0.63-1.08-1.03-2.29-1.19-3.51
				c-0.16-1.22-0.13-2.5,0.18-3.75c0.3-1.25,0.89-2.43,1.64-3.43c0.76-0.99,1.71-1.88,2.84-2.53c1.12-0.65,2.41-1,3.66-1.07
				c1.25-0.08,2.54,0.13,3.7,0.61c1.16,0.48,2.15,1.21,3,2.05c1.74,1.67,2.73,4.07,2.85,6.37c0.18,2.32-0.6,4.72-2.09,6.42
				C160.11,32.73,158.11,33.99,155.89,34.25z"/>
			<linearGradient id="SVGID_3_" gradientUnits="userSpaceOnUse" x1="172.5167" y1="29.825" x2="179.401" y2="10.9108">
				<stop  offset="0" style="stop-color:#E9003E;stop-opacity:0.7"/>
				<stop  offset="0.0314" style="stop-color:#DE0A47;stop-opacity:0.7094"/>
				<stop  offset="0.2363" style="stop-color:#9C467E;stop-opacity:0.7709"/>
				<stop  offset="0.431" style="stop-color:#6479AC;stop-opacity:0.8293"/>
				<stop  offset="0.61" style="stop-color:#39A0D0;stop-opacity:0.883"/>
				<stop  offset="0.7702" style="stop-color:#1ABDEA;stop-opacity:0.931"/>
				<stop  offset="0.9055" style="stop-color:#07CEF9;stop-opacity:0.9717"/>
				<stop  offset="1" style="stop-color:#00D4FF"/>
			</linearGradient>
			<path class="st3" d="M180.46,13.68c-0.78-0.73-1.7-1.33-2.73-1.63c-1.02-0.31-2.11-0.32-3.13-0.09c-2.08,0.43-3.66,1.88-4.7,3.59
				c-1.08,1.69-1.4,3.72-1.05,5.68c0.3,1.97,1.27,3.69,2.77,4.87c0.75,0.6,1.57,1.06,2.42,1.3c0.85,0.24,1.73,0.25,2.61,0.09
				c1.73-0.3,3.11-1.3,4.21-2.82c1.07-1.45,1.73-3.25,1.8-5.32C182.77,17.31,182.05,15.15,180.46,13.68z M180.66,13.46
				c1.69,1.41,2.99,3.4,3.59,5.69c0.3,1.13,0.45,2.35,0.32,3.59c-0.14,1.24-0.55,2.48-1.21,3.56c-0.66,1.06-1.51,2.05-2.62,2.8
				c-1.1,0.75-2.42,1.19-3.71,1.31c-1.28,0.12-2.62-0.05-3.83-0.51c-1.21-0.46-2.27-1.18-3.15-2.01c-1.83-1.64-2.95-4.07-3.12-6.42
				c-0.26-2.34,0.32-4.86,1.74-6.75c0.7-0.94,1.55-1.77,2.56-2.37c1.01-0.6,2.15-0.94,3.28-1.01
				C176.79,11.13,179.01,12,180.66,13.46z"/>
			<linearGradient id="SVGID_4_" gradientUnits="userSpaceOnUse" x1="123.5282" y1="121.0541" x2="154.3553" y2="36.3575">
				<stop  offset="0" style="stop-color:#E9003E;stop-opacity:0.7"/>
				<stop  offset="0.0314" style="stop-color:#DE0A47;stop-opacity:0.7094"/>
				<stop  offset="0.2363" style="stop-color:#9C467E;stop-opacity:0.7709"/>
				<stop  offset="0.431" style="stop-color:#6479AC;stop-opacity:0.8293"/>
				<stop  offset="0.61" style="stop-color:#39A0D0;stop-opacity:0.883"/>
				<stop  offset="0.7702" style="stop-color:#1ABDEA;stop-opacity:0.931"/>
				<stop  offset="0.9055" style="stop-color:#07CEF9;stop-opacity:0.9717"/>
				<stop  offset="1" style="stop-color:#00D4FF"/>
			</linearGradient>
			<path class="st4" d="M174.61,46.14l-6.26,0.65c-2.06,0.29-4.28,0.14-6.01,1.33c-1.73,1.1-2.92,3.03-3.07,5.08
				c-0.11,1.03,0.13,2.04,0.34,3.07c0.2,1.03,0.38,2.07,0.54,3.1c0.66,4.15,1.05,8.35,0.98,12.56l-0.03,1.58
				c-0.01,0.54-0.1,1.1-0.29,1.61c-0.37,1.04-1.12,1.94-2.08,2.51c-0.96,0.57-2.11,0.78-3.22,0.6c-1.1-0.18-2.13-0.77-2.86-1.62
				c-0.37-0.42-0.65-0.92-0.85-1.44l-0.57-1.46l-1.15-2.93c-0.77-1.95-1.52-3.91-2.34-5.83c-1.65-3.84-3.35-7.68-5.44-11.27
				l-0.75-1.37c-0.26-0.42-0.54-0.82-0.87-1.2c-0.65-0.74-1.42-1.37-2.28-1.85c-1.71-0.97-3.76-1.31-5.68-0.98l-12.32,2.44
				l-12.31,2.42c-1.86,0.45-3.54,1.57-4.69,3.1c-1.16,1.55-1.72,3.4-1.68,5.4c-0.03,4.13,0.29,8.3,0.96,12.37
				c0.69,4.07,1.76,8.11,3.12,12c0.35,0.97,0.73,1.92,1.14,2.87c0.41,0.93,0.85,1.92,1.31,2.7c1.01,1.59,2.5,2.87,4.27,3.54
				c1.75,0.71,3.72,0.82,5.55,0.37l0.68-0.19l0.66-0.25c0.44-0.17,0.95-0.42,1.42-0.62l2.87-1.28l2.87-1.28
				c0.29-0.13,0.37-0.17,0.47-0.24c0.1-0.08,0.18-0.17,0.25-0.28c0.13-0.22,0.17-0.49,0.12-0.74c-0.01-0.06-0.03-0.12-0.05-0.19
				l-0.12-0.26l-0.36-0.72l-0.69-1.45c-0.45-0.97-0.87-1.95-1.26-2.95c-0.79-1.98-1.45-4.07-1.98-6.11
				c-0.54-2.06-1.01-4.14-1.35-6.26c-0.08-0.53-0.16-1.06-0.23-1.6c-0.06-0.45-0.17-1.27,0.05-2.03c0.42-1.57,1.92-2.62,3.43-2.69
				c0.76-0.05,1.57,0.15,2.23,0.58c0.34,0.2,0.62,0.49,0.87,0.77l0.33,0.45l0.21,0.35c0.56,0.92,1.09,1.87,1.58,2.84
				c1.95,3.87,3.22,8.17,3.41,12.58c0.21,4.41-0.73,8.87-2.58,12.85c-1.81,3.99-4.46,7.6-7.59,10.6c-3.13,3.02-6.67,5.53-10.37,7.69
				l-1.4,0.79l-0.09,0.05c-0.01-0.04-0.21,0.23,0.4-0.36c0.36-0.49,0.4-1.14,0.05-1.67c-0.56-0.64-0.93-0.6-0.69-0.55l0.37,0.13
				l0.74,0.25l2.98,1.02l5.95,2.04l11.89,4.13c1.01,0.35,1.95,0.71,2.68,0.78c0.37,0.04,0.58,0,0.63-0.05
				c0.02-0.01,0.04-0.02,0.08-0.05c0.01,0,0.16-0.15,0.23-0.21l0.53-0.52c1.4-1.41,2.65-2.98,3.78-4.66
				c2.26-3.33,4.03-7.06,5.39-10.92c0.34-0.97,0.65-1.94,0.94-2.93l0.41-1.48l0.19-0.75l0.09-0.37l0.05-0.19l0.02-0.09
				c-0.02,0.17-0.03-0.31,0.48-0.8c0.66-0.41,0.89-0.28,0.78-0.3l0.1-0.01l0.2-0.02l0.39-0.04l0.78-0.07l1.57-0.15l3.13-0.29
				l6.27-0.55c2.13-0.18,4.1-0.33,6.03-0.85c3.85-1.07,7.38-3.3,10.01-6.37c2.59-3.08,4.33-6.94,4.75-11.01
				c0.41-4.13,0.59-8.33,0.52-12.51c-0.04-2.09-0.14-4.18-0.31-6.26c-0.18-2.08-0.52-4.15-0.79-6.22c-0.17-1.02-0.23-2.1-0.48-3.08
				c-0.28-0.98-0.79-1.89-1.47-2.64c-0.69-0.75-1.56-1.34-2.51-1.71C176.67,46.19,175.64,46.05,174.61,46.14z M174.58,45.85
				c1.07-0.11,2.16,0.02,3.17,0.39c1.01,0.38,1.92,0.99,2.67,1.77c0.73,0.79,1.29,1.75,1.6,2.79c0.15,0.53,0.22,1.05,0.3,1.56
				l0.24,1.56c0.29,2.08,0.7,4.15,0.92,6.24c0.21,2.09,0.37,4.19,0.46,6.29c0.17,4.21,0.17,8.41-0.11,12.64
				c-0.29,4.31-1.99,8.5-4.67,11.92c-2.71,3.41-6.47,5.99-10.66,7.32c-2.11,0.66-4.34,0.91-6.37,1.15l-6.25,0.75l-3.13,0.36
				l-1.56,0.18l-0.78,0.09l-0.39,0.04l-0.2,0.02l-0.1,0.01c-0.17-0.01-0.01,0.11,0.59-0.26c0.46-0.45,0.45-0.86,0.41-0.63l-0.02,0.1
				l-0.04,0.2l-0.09,0.39l-0.19,0.78l-0.4,1.56c-0.28,1.03-0.59,2.06-0.92,3.08c-1.34,4.08-3.11,8.04-5.49,11.7
				c-1.21,1.81-2.57,3.55-4.12,5.12l-0.59,0.58c-0.12,0.11-0.15,0.16-0.35,0.32c-0.16,0.14-0.36,0.28-0.57,0.4
				c-0.87,0.49-1.77,0.49-2.42,0.42c-1.36-0.16-2.39-0.6-3.36-0.92l-11.91-4.07l-5.94-2.06l-2.97-1.03l-0.74-0.26l-0.37-0.13
				c0.19,0.03-0.26,0.06-0.85-0.64c-0.39-0.59-0.35-1.32,0.06-1.86c0.65-0.64,0.52-0.39,0.56-0.46l0.08-0.05l1.34-0.75
				c3.55-2.04,6.92-4.4,9.85-7.19c2.95-2.77,5.38-6.01,7.09-9.65c1.72-3.61,2.61-7.58,2.46-11.56c-0.13-3.99-1.23-7.93-3.01-11.56
				c-0.44-0.91-0.93-1.8-1.45-2.68l-0.19-0.33l-0.13-0.18c-0.09-0.11-0.18-0.21-0.3-0.27c-0.21-0.14-0.47-0.22-0.75-0.21
				c-0.57,0.02-1.12,0.41-1.24,0.9c-0.07,0.26-0.06,0.5,0.01,1.09c0.06,0.51,0.12,1.01,0.2,1.52c0.3,2.02,0.74,4.04,1.24,6.04
				c0.5,2.02,1.09,3.95,1.84,5.87c0.37,0.96,0.77,1.91,1.19,2.84l0.65,1.4l0.34,0.7l0.09,0.18l0.12,0.27
				c0.07,0.19,0.12,0.37,0.16,0.57c0.15,0.78,0,1.61-0.42,2.29c-0.21,0.34-0.48,0.64-0.8,0.88c-0.32,0.24-0.73,0.42-0.91,0.5
				l-2.88,1.25l-2.88,1.25c-0.49,0.21-0.93,0.42-1.47,0.63l-0.81,0.3l-0.84,0.23c-2.25,0.53-4.66,0.37-6.8-0.52
				c-2.16-0.84-4-2.43-5.21-4.4c-0.59-1.04-0.98-1.97-1.41-2.97c-0.42-0.98-0.8-1.98-1.16-2.99c-1.37-4.04-2.41-8.15-3.09-12.35
				c-0.66-4.21-0.94-8.44-0.87-12.7c0.01-1.05,0.13-2.27,0.49-3.34c0.35-1.09,0.89-2.12,1.58-3.03c1.38-1.82,3.41-3.14,5.63-3.65
				l12.41-2.32l12.4-2.24c2.21-0.33,4.53,0.09,6.46,1.23c0.96,0.56,1.83,1.29,2.55,2.14c0.36,0.43,0.67,0.89,0.95,1.36l0.74,1.4
				c2.07,3.7,3.7,7.57,5.3,11.47c0.79,1.95,1.51,3.92,2.25,5.89l1.1,2.95l0.55,1.47c0.17,0.46,0.41,0.89,0.72,1.27
				c0.62,0.75,1.52,1.28,2.48,1.45c0.96,0.18,1.99,0,2.85-0.49c0.86-0.49,1.54-1.28,1.89-2.21c0.37-0.92,0.28-1.98,0.34-3.03
				c0.11-4.18-0.18-8.37-0.83-12.51c-0.16-1.03-0.34-2.07-0.54-3.09c-0.2-1.01-0.45-2.08-0.34-3.15c0.16-2.15,1.39-4.16,3.2-5.31
				c0.9-0.58,1.94-0.94,3.01-1.05l3.13-0.32L174.58,45.85z"/>
		</g>
		<g>
			<linearGradient id="SVGID_5_" gradientUnits="userSpaceOnUse" x1="60.4574" y1="34.7151" x2="67.3419" y2="15.8002">
				<stop  offset="0" style="stop-color:#E9003E;stop-opacity:0.7"/>
				<stop  offset="0.0314" style="stop-color:#DE0A47;stop-opacity:0.7094"/>
				<stop  offset="0.2363" style="stop-color:#9C467E;stop-opacity:0.7709"/>
				<stop  offset="0.431" style="stop-color:#6479AC;stop-opacity:0.8293"/>
				<stop  offset="0.61" style="stop-color:#39A0D0;stop-opacity:0.883"/>
				<stop  offset="0.7702" style="stop-color:#1ABDEA;stop-opacity:0.931"/>
				<stop  offset="0.9055" style="stop-color:#07CEF9;stop-opacity:0.9717"/>
				<stop  offset="1" style="stop-color:#00D4FF"/>
			</linearGradient>
			<path class="st5" d="M65.21,33.95c1.06-0.09,2.11-0.42,3-1.02c0.89-0.59,1.61-1.4,2.16-2.3c1.13-1.8,1.42-3.91,1.11-5.91
				c-0.26-2.02-1.19-3.84-2.68-5.1c-1.49-1.31-3.34-1.97-5.16-1.71c-1.85,0.22-3.33,1.32-4.3,2.92c-0.99,1.55-1.38,3.3-1.27,5.19
				c0.1,1.88,0.56,3.72,1.79,5.34c0.61,0.81,1.37,1.52,2.3,1.99C63.08,33.82,64.15,34.04,65.21,33.95z M65.24,34.25
				c-1.09,0.14-2.24,0.11-3.35-0.2c-1.11-0.3-2.18-0.84-3.14-1.53c-0.96-0.69-1.83-1.61-2.46-2.69c-0.63-1.08-1.03-2.29-1.19-3.51
				c-0.16-1.22-0.13-2.5,0.18-3.75c0.3-1.25,0.89-2.43,1.64-3.43c0.76-0.99,1.71-1.88,2.84-2.53c1.12-0.65,2.41-1,3.66-1.07
				c1.25-0.08,2.54,0.13,3.7,0.61c1.16,0.48,2.15,1.21,3,2.05c1.74,1.67,2.73,4.07,2.85,6.37c0.18,2.32-0.6,4.72-2.09,6.42
				C69.46,32.73,67.46,33.99,65.24,34.25z"/>
			<linearGradient id="SVGID_6_" gradientUnits="userSpaceOnUse" x1="81.8667" y1="29.825" x2="88.7509" y2="10.9108">
				<stop  offset="0" style="stop-color:#E9003E;stop-opacity:0.7"/>
				<stop  offset="0.0314" style="stop-color:#DE0A47;stop-opacity:0.7094"/>
				<stop  offset="0.2363" style="stop-color:#9C467E;stop-opacity:0.7709"/>
				<stop  offset="0.431" style="stop-color:#6479AC;stop-opacity:0.8293"/>
				<stop  offset="0.61" style="stop-color:#39A0D0;stop-opacity:0.883"/>
				<stop  offset="0.7702" style="stop-color:#1ABDEA;stop-opacity:0.931"/>
				<stop  offset="0.9055" style="stop-color:#07CEF9;stop-opacity:0.9717"/>
				<stop  offset="1" style="stop-color:#00D4FF"/>
			</linearGradient>
			<path class="st6" d="M89.81,13.68c-0.78-0.73-1.7-1.33-2.73-1.63c-1.02-0.31-2.11-0.32-3.13-0.09c-2.08,0.43-3.66,1.88-4.7,3.59
				c-1.08,1.69-1.4,3.72-1.05,5.68c0.3,1.97,1.27,3.69,2.77,4.87c0.75,0.6,1.57,1.06,2.42,1.3c0.85,0.24,1.73,0.25,2.61,0.09
				c1.73-0.3,3.11-1.3,4.21-2.82c1.07-1.45,1.73-3.25,1.8-5.32C92.12,17.31,91.4,15.15,89.81,13.68z M90.01,13.46
				c1.69,1.41,2.99,3.4,3.59,5.69c0.3,1.13,0.45,2.35,0.32,3.59c-0.14,1.24-0.55,2.48-1.21,3.56c-0.66,1.06-1.51,2.05-2.62,2.8
				c-1.1,0.75-2.42,1.19-3.71,1.31c-1.28,0.12-2.62-0.05-3.83-0.51c-1.21-0.46-2.27-1.18-3.15-2.01c-1.83-1.64-2.95-4.07-3.12-6.42
				c-0.26-2.34,0.32-4.86,1.74-6.75c0.7-0.94,1.55-1.77,2.56-2.37c1.01-0.6,2.15-0.94,3.28-1.01C86.14,11.13,88.36,12,90.01,13.46z"
				/>
			<linearGradient id="SVGID_7_" gradientUnits="userSpaceOnUse" x1="32.8782" y1="121.0541" x2="63.7052" y2="36.3575">
				<stop  offset="0" style="stop-color:#E9003E;stop-opacity:0.7"/>
				<stop  offset="0.0314" style="stop-color:#DE0A47;stop-opacity:0.7094"/>
				<stop  offset="0.2363" style="stop-color:#9C467E;stop-opacity:0.7709"/>
				<stop  offset="0.431" style="stop-color:#6479AC;stop-opacity:0.8293"/>
				<stop  offset="0.61" style="stop-color:#39A0D0;stop-opacity:0.883"/>
				<stop  offset="0.7702" style="stop-color:#1ABDEA;stop-opacity:0.931"/>
				<stop  offset="0.9055" style="stop-color:#07CEF9;stop-opacity:0.9717"/>
				<stop  offset="1" style="stop-color:#00D4FF"/>
			</linearGradient>
			<path class="st7" d="M83.96,46.14l-6.26,0.65c-2.06,0.29-4.28,0.14-6.01,1.33c-1.73,1.1-2.92,3.03-3.07,5.08
				c-0.11,1.03,0.13,2.04,0.34,3.07c0.2,1.03,0.38,2.07,0.54,3.1c0.66,4.15,1.05,8.35,0.98,12.56l-0.03,1.58
				c-0.01,0.54-0.1,1.1-0.29,1.61c-0.37,1.04-1.12,1.94-2.08,2.51c-0.96,0.57-2.11,0.78-3.22,0.6c-1.1-0.18-2.13-0.77-2.86-1.62
				c-0.37-0.42-0.65-0.92-0.85-1.44l-0.57-1.46l-1.15-2.93c-0.77-1.95-1.52-3.91-2.34-5.83c-1.65-3.84-3.35-7.68-5.44-11.27
				l-0.75-1.37c-0.26-0.42-0.54-0.82-0.87-1.2c-0.65-0.74-1.42-1.37-2.28-1.85c-1.71-0.97-3.76-1.31-5.68-0.98l-12.32,2.44
				l-12.31,2.42c-1.86,0.45-3.54,1.57-4.69,3.1c-1.16,1.55-1.72,3.4-1.68,5.4c-0.03,4.13,0.29,8.3,0.96,12.37
				c0.69,4.07,1.76,8.11,3.12,12c0.35,0.97,0.73,1.92,1.14,2.87c0.41,0.93,0.85,1.92,1.31,2.7c1.01,1.59,2.5,2.87,4.27,3.54
				c1.75,0.71,3.72,0.82,5.55,0.37l0.68-0.19l0.66-0.25c0.44-0.17,0.95-0.42,1.42-0.62l2.87-1.28l2.87-1.28
				c0.29-0.13,0.37-0.17,0.47-0.24c0.1-0.08,0.18-0.17,0.25-0.28c0.13-0.22,0.17-0.49,0.12-0.74c-0.01-0.06-0.03-0.12-0.05-0.19
				l-0.12-0.26l-0.36-0.72l-0.69-1.45c-0.45-0.97-0.87-1.95-1.26-2.95c-0.79-1.98-1.45-4.07-1.98-6.11
				c-0.54-2.06-1.01-4.14-1.35-6.26c-0.08-0.53-0.16-1.06-0.23-1.6c-0.06-0.45-0.17-1.27,0.05-2.03c0.42-1.57,1.92-2.62,3.43-2.69
				c0.76-0.05,1.57,0.15,2.23,0.58c0.34,0.2,0.62,0.49,0.87,0.77l0.33,0.45l0.21,0.35c0.56,0.92,1.09,1.87,1.58,2.84
				c1.95,3.87,3.22,8.17,3.41,12.58c0.21,4.41-0.73,8.87-2.58,12.85c-1.81,3.99-4.46,7.6-7.59,10.6c-3.13,3.02-6.67,5.53-10.37,7.69
				l-1.4,0.79l-0.09,0.05c-0.01-0.04-0.21,0.23,0.4-0.36c0.36-0.49,0.4-1.14,0.05-1.67c-0.56-0.64-0.93-0.6-0.69-0.55l0.37,0.13
				l0.74,0.25l2.98,1.02l5.95,2.04l11.89,4.13c1.01,0.35,1.95,0.71,2.68,0.78c0.37,0.04,0.58,0,0.63-0.05
				c0.02-0.01,0.04-0.02,0.08-0.05c0.01,0,0.16-0.15,0.23-0.21l0.53-0.52c1.4-1.41,2.65-2.98,3.78-4.66
				c2.26-3.33,4.03-7.06,5.39-10.92c0.34-0.97,0.65-1.94,0.94-2.93l0.41-1.48l0.19-0.75l0.09-0.37l0.05-0.19l0.02-0.09
				c-0.02,0.17-0.03-0.31,0.48-0.8c0.66-0.41,0.89-0.28,0.78-0.3l0.1-0.01l0.2-0.02l0.39-0.04l0.78-0.07l1.57-0.15l3.13-0.29
				l6.27-0.55c2.13-0.18,4.1-0.33,6.03-0.85c3.85-1.07,7.38-3.3,10.01-6.37c2.59-3.08,4.33-6.94,4.75-11.01
				c0.41-4.13,0.59-8.33,0.52-12.51c-0.04-2.09-0.14-4.18-0.31-6.26c-0.18-2.08-0.52-4.15-0.79-6.22c-0.17-1.02-0.23-2.1-0.48-3.08
				c-0.28-0.98-0.79-1.89-1.47-2.64c-0.69-0.75-1.56-1.34-2.51-1.71C86.02,46.19,84.99,46.05,83.96,46.14z M83.93,45.85
				c1.07-0.11,2.16,0.02,3.17,0.39c1.01,0.38,1.92,0.99,2.67,1.77c0.73,0.79,1.29,1.75,1.6,2.79c0.15,0.53,0.22,1.05,0.3,1.56
				l0.24,1.56c0.29,2.08,0.7,4.15,0.92,6.24c0.21,2.09,0.37,4.19,0.46,6.29c0.17,4.21,0.17,8.41-0.11,12.64
				c-0.29,4.31-1.99,8.5-4.67,11.92c-2.71,3.41-6.47,5.99-10.66,7.32c-2.11,0.66-4.34,0.91-6.37,1.15l-6.25,0.75l-3.13,0.36
				l-1.56,0.18l-0.78,0.09l-0.39,0.04l-0.2,0.02l-0.1,0.01c-0.17-0.01-0.01,0.11,0.59-0.26c0.46-0.45,0.45-0.86,0.41-0.63l-0.02,0.1
				l-0.04,0.2l-0.09,0.39l-0.19,0.78l-0.4,1.56c-0.28,1.03-0.59,2.06-0.92,3.08c-1.34,4.08-3.11,8.04-5.49,11.7
				c-1.21,1.81-2.57,3.55-4.12,5.12l-0.59,0.58c-0.12,0.11-0.15,0.16-0.35,0.32c-0.16,0.14-0.36,0.28-0.57,0.4
				c-0.87,0.49-1.77,0.49-2.42,0.42c-1.36-0.16-2.39-0.6-3.36-0.92l-11.91-4.07l-5.94-2.06l-2.97-1.03l-0.74-0.26l-0.37-0.13
				c0.19,0.03-0.26,0.06-0.85-0.64c-0.39-0.59-0.35-1.32,0.06-1.86c0.65-0.64,0.52-0.39,0.56-0.46l0.08-0.05l1.34-0.75
				c3.55-2.04,6.92-4.4,9.85-7.19c2.95-2.77,5.38-6.01,7.09-9.65c1.72-3.61,2.61-7.58,2.46-11.56c-0.13-3.99-1.23-7.93-3.01-11.56
				c-0.44-0.91-0.93-1.8-1.45-2.68l-0.19-0.33l-0.13-0.18c-0.09-0.11-0.18-0.21-0.3-0.27c-0.21-0.14-0.47-0.22-0.75-0.21
				c-0.57,0.02-1.12,0.41-1.24,0.9c-0.07,0.26-0.06,0.5,0.01,1.09c0.06,0.51,0.12,1.01,0.2,1.52c0.3,2.02,0.74,4.04,1.24,6.04
				c0.5,2.02,1.09,3.95,1.84,5.87c0.37,0.96,0.77,1.91,1.19,2.84l0.65,1.4l0.34,0.7l0.09,0.18l0.12,0.27
				c0.07,0.19,0.12,0.37,0.16,0.57c0.15,0.78,0,1.61-0.42,2.29c-0.21,0.34-0.48,0.64-0.8,0.88c-0.32,0.24-0.73,0.42-0.91,0.5
				l-2.88,1.25l-2.88,1.25c-0.49,0.21-0.93,0.42-1.47,0.63l-0.81,0.3l-0.84,0.23c-2.25,0.53-4.66,0.37-6.8-0.52
				c-2.16-0.84-4-2.43-5.21-4.4c-0.59-1.04-0.98-1.97-1.41-2.97c-0.42-0.98-0.8-1.98-1.16-2.99c-1.37-4.04-2.41-8.15-3.09-12.35
				c-0.66-4.21-0.94-8.44-0.87-12.7c0.01-1.05,0.13-2.27,0.49-3.34c0.35-1.09,0.89-2.12,1.58-3.03c1.38-1.82,3.41-3.14,5.63-3.65
				l12.41-2.32l12.4-2.24c2.21-0.33,4.53,0.09,6.46,1.23c0.96,0.56,1.83,1.29,2.55,2.14c0.36,0.43,0.67,0.89,0.95,1.36l0.74,1.4
				c2.07,3.7,3.7,7.57,5.3,11.47c0.79,1.95,1.51,3.92,2.25,5.89l1.1,2.95l0.55,1.47c0.17,0.46,0.41,0.89,0.72,1.27
				c0.62,0.75,1.52,1.28,2.48,1.45c0.96,0.18,1.99,0,2.85-0.49c0.86-0.49,1.54-1.28,1.89-2.21c0.37-0.92,0.28-1.98,0.34-3.03
				c0.11-4.18-0.18-8.37-0.83-12.51c-0.16-1.03-0.34-2.07-0.54-3.09c-0.2-1.01-0.45-2.08-0.34-3.15c0.16-2.15,1.39-4.16,3.2-5.31
				c0.9-0.58,1.94-0.94,3.01-1.05l3.13-0.32L83.93,45.85z"/>
		</g>
	</g>
</g>
</svg>
