<?xml version="1.0" encoding="utf-8"?>
<!-- Generator: Adobe Illustrator 24.3.0, SVG Export Plug-In . SVG Version: 6.00 Build 0)  -->
<svg version="1.1" id="Layer_1" xmlns="http://www.w3.org/2000/svg" xmlns:xlink="http://www.w3.org/1999/xlink" x="0px" y="0px"
	 viewBox="0 0 193.82 134.77" style="enable-background:new 0 0 193.82 134.77;" xml:space="preserve">
<style type="text/css">
	.st0{fill:#FFFFFF;stroke:#F8FFFA;stroke-miterlimit:10;}
	.st1{fill:url(#SVGID_1_);}
	.st2{fill:url(#SVGID_2_);}
	.st3{fill:url(#SVGID_3_);}
	.st4{fill:url(#SVGID_4_);}
	.st5{fill:url(#SVGID_5_);}
	.st6{fill:url(#SVGID_6_);}
	.st7{fill:url(#SVGID_7_);}
	.st8{fill:url(#SVGID_8_);}
	.st9{fill:url(#SVGID_9_);}
	.st10{fill:url(#SVGID_10_);}
	.st11{fill:url(#SVGID_11_);}
	.st12{fill:url(#SVGID_12_);}
	.st13{fill:url(#SVGID_13_);}
	.st14{fill:url(#SVGID_14_);}
	.st15{fill:url(#SVGID_15_);}
	.st16{fill:url(#SVGID_16_);}
	.st17{fill:url(#SVGID_17_);}
	.st18{fill:url(#SVGID_18_);}
	.st19{fill:url(#SVGID_19_);}
	.st20{fill:url(#SVGID_20_);}
	.st21{fill:url(#SVGID_21_);}
	.st22{fill:url(#SVGID_22_);}
	.st23{fill:url(#SVGID_23_);}
	.st24{fill:url(#SVGID_24_);}
	.st25{fill:url(#SVGID_25_);}
	.st26{fill:url(#SVGID_26_);}
	.st27{fill:url(#SVGID_27_);}
	.st28{fill:url(#SVGID_28_);}
	.st29{fill:url(#SVGID_29_);}
	.st30{fill:url(#SVGID_30_);}
	.st31{fill:url(#SVGID_31_);}
	.st32{fill:url(#SVGID_32_);}
	.st33{fill:url(#SVGID_33_);}
	.st34{fill:url(#SVGID_34_);}
	.st35{fill:url(#SVGID_35_);}
	.st36{fill:url(#SVGID_36_);}
	.st37{fill:url(#SVGID_37_);}
	.st38{fill:url(#SVGID_38_);}
	.st39{fill:url(#SVGID_39_);}
	.st40{fill:url(#SVGID_40_);}
	.st41{fill:url(#SVGID_41_);}
	.st42{fill:url(#SVGID_42_);}
</style>
<rect x="-9.85" y="-36.92" class="st0" width="941.54" height="212.92"/>
<g>
	<linearGradient id="SVGID_1_" gradientUnits="userSpaceOnUse" x1="159.2256" y1="113.6056" x2="44.3465" y2="17.2107">
		<stop  offset="0" style="stop-color:#006837"/>
		<stop  offset="0.1751" style="stop-color:#227F39"/>
		<stop  offset="0.4385" style="stop-color:#509D3C"/>
		<stop  offset="0.6734" style="stop-color:#71B43D"/>
		<stop  offset="0.8686" style="stop-color:#85C13F"/>
		<stop  offset="1" style="stop-color:#8CC63F"/>
	</linearGradient>
	<path class="st1" d="M155.92,34.07c2.1-0.22,3.86-1.25,5.27-3.1c1.4-1.85,1.98-3.98,1.73-6.41c-0.25-2.42-1.25-4.39-3.01-5.91
		c-1.75-1.52-3.69-2.17-5.79-1.95c-2.11,0.22-3.84,1.25-5.19,3.09c-1.35,1.84-1.9,3.98-1.65,6.4c0.25,2.42,1.23,4.4,2.93,5.92
		C151.91,33.64,153.81,34.29,155.92,34.07z M180.62,13.53c-1.7-1.52-3.61-2.18-5.71-1.96c-2.11,0.22-3.86,1.25-5.27,3.1
		c-1.4,1.85-1.98,3.98-1.73,6.41c0.25,2.42,1.25,4.39,3.01,5.91c1.75,1.52,3.68,2.17,5.79,1.95c2.11-0.22,3.83-1.25,5.19-3.09
		c1.35-1.84,1.9-3.97,1.65-6.4C183.3,17.03,182.32,15.05,180.62,13.53z M174.66,45.98l-9.38,0.97c-4.05,0.42-6.8,4.25-5.98,8.23
		c0.03,0.15,0.06,0.29,0.09,0.44c0.54,2.66,0.95,5.36,1.24,8.09c0.34,3.26,0.43,6.58,0.29,9.95c-0.09,2.2-1.75,4.03-3.94,4.32h0
		c-2.09,0.28-4.08-0.93-4.82-2.91c-0.97-2.6-1.96-5.19-2.98-7.79c-1.45-3.68-3.02-7.27-4.71-10.77c-0.75-1.55-1.56-3.06-2.44-4.54
		c-1.97-3.33-5.87-5.02-9.67-4.3l-24,4.56c-4.25,0.81-7.35,4.47-7.46,8.79l0,0.09c-0.08,2.88,0.06,6.01,0.41,9.38
		c0.47,4.53,1.5,9.29,3.08,14.29c0.68,2.16,1.54,4.32,2.56,6.46c2.32,4.86,8.18,6.88,13.11,4.71l7.25-3.19
		c1.12-0.5,1.58-1.83,1.03-2.93c-1.7-3.39-2.98-6.62-3.83-9.69c-1.02-3.67-1.68-6.93-1.97-9.77v0c-0.28-2.7,3.3-3.88,4.72-1.57
		c2.74,4.46,4.35,8.96,4.82,13.51c0.62,6-0.82,11.82-4.34,17.45c-3.49,5.59-9.17,10.55-17.05,14.87c-0.06,0.03-0.06,0.12,0.01,0.14
		l23.07,7.95c2.23,0.77,3.2,0.59,3.87-0.04c2.57-2.41,4.83-5.44,6.78-9.09c2.22-4.15,3.91-8.78,5.09-13.88
		c0.01-0.03,0.03-0.06,0.07-0.06l9.42-0.98l0,0l5.46-0.57c10.22-1.06,18.2-9.31,18.92-19.56l0.01-0.2
		c0.46-6.81,0.39-13.21-0.24-19.21c-0.28-2.74-0.66-5.31-1.12-7.71v0C181.35,47.99,178.15,45.62,174.66,45.98z M65.2,34.07
		c2.1-0.22,3.86-1.25,5.27-3.1c1.4-1.85,1.98-3.98,1.73-6.41c-0.25-2.42-1.25-4.39-3.01-5.91c-1.75-1.52-3.69-2.17-5.79-1.95
		c-2.11,0.22-3.84,1.25-5.19,3.09c-1.35,1.84-1.9,3.98-1.65,6.4c0.25,2.42,1.23,4.4,2.93,5.92C61.19,33.64,63.1,34.29,65.2,34.07z
		 M89.9,13.53c-1.7-1.52-3.61-2.18-5.71-1.96c-2.11,0.22-3.86,1.25-5.27,3.1c-1.4,1.85-1.98,3.98-1.73,6.41
		c0.25,2.42,1.25,4.39,3.01,5.91c1.75,1.52,3.68,2.17,5.79,1.95c2.11-0.22,3.83-1.25,5.19-3.09c1.35-1.84,1.9-3.97,1.65-6.4
		C92.58,17.03,91.6,15.05,89.9,13.53z M83.94,45.98l-9.38,0.97c-4.05,0.42-6.8,4.25-5.98,8.23c0.03,0.15,0.06,0.29,0.09,0.44
		c0.54,2.66,0.95,5.36,1.24,8.09c0.34,3.26,0.43,6.58,0.29,9.95c-0.09,2.2-1.75,4.03-3.94,4.32h0c-2.09,0.28-4.08-0.93-4.82-2.91
		c-0.97-2.6-1.96-5.19-2.98-7.79c-1.45-3.68-3.02-7.27-4.71-10.77c-0.75-1.55-1.56-3.06-2.44-4.54c-1.97-3.33-5.87-5.02-9.67-4.3
		l-24,4.56c-4.25,0.81-7.35,4.47-7.46,8.79l0,0.09c-0.08,2.88,0.06,6.01,0.41,9.38c0.47,4.53,1.5,9.29,3.08,14.29
		c0.68,2.16,1.54,4.32,2.56,6.46c2.32,4.86,8.18,6.88,13.11,4.71l7.25-3.19c1.12-0.5,1.58-1.83,1.03-2.93
		c-1.7-3.39-2.98-6.62-3.83-9.69c-1.02-3.67-1.68-6.93-1.97-9.77v0c-0.28-2.7,3.3-3.88,4.72-1.57c2.74,4.46,4.35,8.96,4.82,13.51
		c0.62,6-0.82,11.82-4.34,17.45c-3.49,5.59-9.17,10.55-17.05,14.87c-0.06,0.03-0.06,0.12,0.01,0.14l23.07,7.95
		c2.23,0.77,3.2,0.59,3.87-0.04c2.57-2.41,4.83-5.44,6.78-9.09c2.22-4.15,3.91-8.78,5.09-13.88c0.01-0.03,0.03-0.06,0.07-0.06
		l9.42-0.98l0,0l5.46-0.57c10.22-1.06,18.2-9.31,18.92-19.56l0.01-0.2c0.46-6.81,0.39-13.21-0.24-19.21
		c-0.28-2.74-0.66-5.31-1.12-7.71v0C90.63,47.99,87.44,45.62,83.94,45.98z"/>
	<g>
		<g>
			<linearGradient id="SVGID_2_" gradientUnits="userSpaceOnUse" x1="147.3785" y1="19.2927" x2="162.3824" y2="31.8824">
				<stop  offset="0" style="stop-color:#A4D480"/>
				<stop  offset="0.1333" style="stop-color:#9DD383"/>
				<stop  offset="0.3241" style="stop-color:#8AD18D"/>
				<stop  offset="0.5497" style="stop-color:#6BCE9D"/>
				<stop  offset="0.7997" style="stop-color:#41C9B3"/>
				<stop  offset="1" style="stop-color:#19C5C7"/>
			</linearGradient>
			<path class="st2" d="M155.91,33.93c1.06-0.1,2.09-0.53,2.87-1.22c0.8-0.67,1.35-1.57,1.77-2.48c0.83-1.82,1.13-3.54,1.13-5.49
				c0.01-0.97-0.07-1.95-0.35-2.9c-0.28-0.95-0.78-1.87-1.51-2.61c-0.72-0.74-1.62-1.32-2.58-1.63c-0.96-0.32-2-0.31-2.95-0.1
				c-1.95,0.45-3.32,1.68-4.32,3.25c-0.99,1.59-1.26,3.36-1.12,5.22c0.07,0.94,0.25,1.84,0.56,2.69c0.3,0.86,0.69,1.71,1.27,2.52
				c0.57,0.82,1.27,1.6,2.18,2.1C153.75,33.82,154.84,34.03,155.91,33.93z M155.94,34.22c-1.1,0.12-2.23,0.08-3.37-0.17
				c-1.13-0.27-2.26-0.74-3.26-1.43c-1-0.68-1.91-1.62-2.52-2.74c-0.61-1.12-0.95-2.36-1.1-3.59c-0.33-2.45,0.41-5.2,1.98-7.16
				c0.76-0.98,1.7-1.87,2.85-2.46c1.14-0.6,2.43-0.82,3.63-0.8c2.46,0.03,4.64,1.16,6.33,2.64c0.87,0.74,1.69,1.59,2.34,2.61
				c0.66,1.01,1.12,2.17,1.34,3.36c0.22,1.19,0.18,2.47-0.17,3.68c-0.34,1.22-1.04,2.31-1.89,3.16
				C160.38,33.08,158.11,34,155.94,34.22z"/>
			<linearGradient id="SVGID_3_" gradientUnits="userSpaceOnUse" x1="168.029" y1="14.2521" x2="183.0325" y2="26.8416">
				<stop  offset="0" style="stop-color:#A4D480"/>
				<stop  offset="0.1333" style="stop-color:#9DD383"/>
				<stop  offset="0.3241" style="stop-color:#8AD18D"/>
				<stop  offset="0.5497" style="stop-color:#6BCE9D"/>
				<stop  offset="0.7997" style="stop-color:#41C9B3"/>
				<stop  offset="1" style="stop-color:#19C5C7"/>
			</linearGradient>
			<path class="st3" d="M180.52,13.64c-0.79-0.72-1.77-1.25-2.8-1.41c-1.03-0.19-2.05-0.01-2.97,0.31
				c-1.83,0.66-3.12,1.77-4.38,3.24c-0.61,0.72-1.15,1.53-1.51,2.46c-0.36,0.93-0.53,1.97-0.44,3.01c0.13,2.09,1.3,4.03,3.01,5.09
				c1.71,1.13,3.54,1.51,5.29,1.17c1.77-0.32,3.07-1.43,4.12-2.94c0.52-0.74,0.9-1.54,1.16-2.41c0.27-0.87,0.46-1.82,0.53-2.83
				c0.07-1,0.04-2.06-0.3-3.05C181.92,15.28,181.31,14.36,180.52,13.64z M180.72,13.42c1.64,1.44,3.08,3.34,3.78,5.67
				c0.34,1.14,0.51,2.4,0.33,3.66c-0.17,1.26-0.65,2.5-1.33,3.57c-0.68,1.06-1.57,2.04-2.7,2.75c-1.12,0.72-2.44,1.14-3.72,1.24
				c-1.27,0.11-2.61-0.06-3.78-0.57c-1.18-0.5-2.15-1.31-2.94-2.17c-1.62-1.76-2.54-3.97-2.89-6.2c-0.19-1.12-0.32-2.28-0.21-3.48
				c0.09-1.2,0.45-2.42,1.06-3.5c0.61-1.06,1.46-2.02,2.55-2.72c1.08-0.7,2.4-1.03,3.63-1.01c1.23,0.01,2.44,0.34,3.47,0.84
				C179,12.02,179.89,12.69,180.72,13.42z"/>
			<linearGradient id="SVGID_4_" gradientUnits="userSpaceOnUse" x1="106.2046" y1="49.2862" x2="170.1304" y2="102.9263">
				<stop  offset="0" style="stop-color:#A4D480"/>
				<stop  offset="0.1333" style="stop-color:#9DD383"/>
				<stop  offset="0.3241" style="stop-color:#8AD18D"/>
				<stop  offset="0.5497" style="stop-color:#6BCE9D"/>
				<stop  offset="0.7997" style="stop-color:#41C9B3"/>
				<stop  offset="1" style="stop-color:#19C5C7"/>
			</linearGradient>
			<path class="st4" d="M174.67,46.13l-6.26,0.67c-2.06,0.3-4.28,0.15-5.98,1.36c-1.71,1.11-2.85,3.04-2.97,5.05
				c-0.09,1.01,0.14,1.98,0.38,3.03c0.22,1.03,0.43,2.06,0.61,3.1c0.74,4.15,1.18,8.38,1.18,12.61l-0.01,1.59
				c-0.01,0.56-0.1,1.2-0.3,1.76c-0.4,1.15-1.21,2.16-2.26,2.8c-1.06,0.64-2.34,0.9-3.58,0.71c-1.24-0.19-2.41-0.83-3.24-1.79
				c-0.42-0.47-0.75-1.03-0.98-1.62l-0.59-1.45l-1.19-2.91c-0.8-1.94-1.55-3.89-2.38-5.8c-0.82-1.91-1.68-3.81-2.58-5.69
				c-0.45-0.94-0.88-1.89-1.37-2.8l-1.48-2.7l-0.74-1.35c-0.24-0.39-0.49-0.75-0.79-1.09c-0.59-0.67-1.29-1.24-2.07-1.69
				c-1.55-0.91-3.43-1.24-5.21-0.96l-12.35,2.25l-12.35,2.17c-1.82,0.4-3.5,1.45-4.66,2.93c-1.18,1.5-1.79,3.33-1.79,5.33
				c-0.12,4.13,0.11,8.32,0.69,12.43c0.63,4.11,1.64,8.18,2.96,12.12c0.7,1.94,1.49,3.93,2.45,5.69c1.05,1.7,2.64,3.08,4.52,3.78
				c1.86,0.75,3.95,0.87,5.89,0.39c0.97-0.22,1.87-0.67,2.85-1.1l2.87-1.28l2.87-1.28c0.27-0.12,0.43-0.19,0.58-0.31
				c0.15-0.12,0.29-0.26,0.38-0.43c0.2-0.33,0.27-0.74,0.19-1.13c-0.04-0.21-0.1-0.33-0.23-0.59l-0.36-0.71l-0.7-1.43
				c-0.45-0.96-0.88-1.93-1.28-2.91c-0.8-1.96-1.47-4.01-2.02-6.04c-0.56-2.04-1.04-4.11-1.4-6.22c-0.09-0.53-0.17-1.05-0.24-1.58
				c-0.06-0.47-0.17-1.2,0.02-1.9c0.36-1.42,1.72-2.4,3.12-2.48c0.7-0.05,1.44,0.13,2.06,0.52c0.31,0.18,0.58,0.44,0.81,0.71
				l0.31,0.42l0.21,0.34c0.57,0.91,1.1,1.85,1.6,2.81c1.99,3.83,3.28,8.09,3.48,12.48c0.23,4.39-0.68,8.84-2.51,12.81
				c-1.78,3.99-4.44,7.59-7.57,10.59c-3.12,3.02-6.65,5.54-10.35,7.71l-1.39,0.8l-0.09,0.05c-0.01-0.04-0.21,0.23,0.39-0.35
				c0.36-0.47,0.39-1.11,0.05-1.63c-0.55-0.63-0.91-0.59-0.67-0.54l0.37,0.13l0.75,0.25l2.98,1.01l5.96,2.02l11.92,4.07
				c1.02,0.35,1.95,0.7,2.67,0.77c0.37,0.04,0.56-0.01,0.58-0.04c0.02-0.01,0.03-0.02,0.06-0.05c0,0,0.04-0.03,0.09-0.08l0.13-0.13
				l0.53-0.52c1.4-1.41,2.63-2.99,3.76-4.65c2.24-3.34,3.99-7.07,5.32-10.93c0.33-0.97,0.64-1.94,0.92-2.93l0.4-1.48l0.19-0.75
				l0.09-0.37l0.05-0.19l0.02-0.09c-0.03,0.21-0.04-0.35,0.55-0.91c0.75-0.47,1.01-0.32,0.88-0.35l0.1-0.01l0.2-0.02l0.39-0.04
				l0.78-0.08l1.57-0.15l3.13-0.29l6.27-0.58c2.14-0.18,4.08-0.33,5.99-0.85c3.8-1.07,7.31-3.24,9.94-6.27
				c2.59-3.04,4.36-6.86,4.79-10.91c0.43-4.13,0.61-8.33,0.58-12.5c-0.01-2.09-0.1-4.18-0.27-6.27c-0.18-2.08-0.52-4.15-0.77-6.23
				c-0.16-1.03-0.23-2.1-0.48-3.09c-0.28-0.98-0.8-1.89-1.48-2.65c-0.69-0.75-1.56-1.34-2.51-1.71
				C176.73,46.18,175.69,46.03,174.67,46.13z M174.64,45.83c1.07-0.11,2.16,0.03,3.17,0.39c1,0.38,1.92,0.99,2.66,1.77
				c0.73,0.79,1.28,1.75,1.59,2.78c0.15,0.53,0.22,1.05,0.3,1.56l0.24,1.56c0.31,2.08,0.71,4.15,0.94,6.24
				c0.21,2.09,0.39,4.19,0.49,6.3c0.21,4.21,0.21,8.42-0.05,12.66c-0.28,4.33-1.95,8.56-4.64,12.03c-2.72,3.45-6.5,6.1-10.75,7.43
				c-2.13,0.67-4.39,0.92-6.42,1.16l-6.26,0.72l-3.13,0.36l-1.56,0.18l-0.78,0.09l-0.39,0.04l-0.2,0.02l-0.1,0.01
				c-0.19-0.02-0.01,0.12,0.7-0.3c0.53-0.52,0.52-1,0.48-0.74l-0.02,0.1l-0.05,0.2l-0.09,0.39l-0.19,0.78l-0.41,1.56
				c-0.28,1.04-0.6,2.07-0.94,3.09c-1.37,4.09-3.16,8.05-5.57,11.71c-1.2,1.83-2.58,3.55-4.14,5.13l-0.59,0.58l-0.15,0.14
				c-0.04,0.04-0.1,0.1-0.2,0.18c-0.17,0.15-0.37,0.29-0.58,0.41c-0.89,0.5-1.81,0.5-2.48,0.43c-1.37-0.16-2.41-0.61-3.37-0.93
				l-11.89-4.14l-5.94-2.09l-2.97-1.04l-0.74-0.26l-0.37-0.13c0.18,0.03-0.25,0.06-0.84-0.63c-0.38-0.58-0.34-1.29,0.06-1.82
				c0.64-0.63,0.51-0.38,0.55-0.46l0.08-0.05l1.35-0.75c3.57-2.04,6.94-4.39,9.89-7.18c2.96-2.77,5.39-6.03,7.12-9.67
				c1.75-3.61,2.66-7.61,2.53-11.61c-0.11-4.01-1.2-7.99-2.94-11.67c-0.43-0.92-0.91-1.83-1.43-2.71l-0.19-0.33l-0.15-0.22
				c-0.11-0.13-0.22-0.26-0.36-0.34c-0.26-0.18-0.59-0.28-0.93-0.27c-0.69,0.01-1.38,0.48-1.55,1.12c-0.1,0.33-0.08,0.66-0.02,1.23
				c0.05,0.51,0.11,1.02,0.18,1.53c0.29,2.04,0.7,4.08,1.2,6.1c0.48,2.03,1.07,4,1.8,5.94c0.36,0.97,0.76,1.93,1.17,2.88l0.64,1.42
				l0.33,0.71c0.11,0.21,0.27,0.58,0.31,0.88c0.12,0.65,0,1.34-0.35,1.9c-0.17,0.28-0.4,0.53-0.66,0.73
				c-0.26,0.2-0.59,0.34-0.8,0.43l-2.89,1.25l-2.89,1.25c-0.95,0.4-1.94,0.89-3.03,1.12c-2.14,0.5-4.43,0.34-6.46-0.5
				c-2.04-0.81-3.79-2.3-4.97-4.16c-1.06-1.92-1.83-3.84-2.57-5.84c-1.4-4-2.51-8.07-3.26-12.25c-0.74-4.18-1.12-8.4-1.14-12.66
				c-0.08-2.19,0.57-4.6,1.96-6.44c1.36-1.87,3.4-3.25,5.66-3.83c4.2-0.91,8.24-1.73,12.38-2.58c4.14-0.81,8.19-1.66,12.4-2.43
				c2.36-0.38,4.86,0.05,6.94,1.25c1.05,0.59,1.99,1.37,2.76,2.3c0.39,0.46,0.73,0.96,1.03,1.47l0.75,1.42
				c2.12,3.76,3.74,7.63,5.32,11.57c0.79,1.97,1.5,3.95,2.2,5.93l1.06,2.97l0.53,1.49c0.14,0.4,0.33,0.77,0.59,1.09
				c1.02,1.34,3.07,1.77,4.59,0.91c0.76-0.41,1.38-1.1,1.7-1.92c0.17-0.42,0.25-0.83,0.28-1.32l0.08-1.56
				c0.18-4.16-0.07-8.33-0.63-12.47c-0.14-1.04-0.3-2.07-0.47-3.1c-0.18-1-0.43-2.11-0.3-3.2c0.18-2.19,1.47-4.21,3.31-5.35
				c0.92-0.57,1.96-0.93,3.03-1.04l3.13-0.31L174.64,45.83z"/>
		</g>
		<g>
			<linearGradient id="SVGID_5_" gradientUnits="userSpaceOnUse" x1="56.662" y1="19.2927" x2="71.6659" y2="31.8824">
				<stop  offset="0" style="stop-color:#A4D480"/>
				<stop  offset="0.1333" style="stop-color:#9DD383"/>
				<stop  offset="0.3241" style="stop-color:#8AD18D"/>
				<stop  offset="0.5497" style="stop-color:#6BCE9D"/>
				<stop  offset="0.7997" style="stop-color:#41C9B3"/>
				<stop  offset="1" style="stop-color:#19C5C7"/>
			</linearGradient>
			<path class="st5" d="M65.19,33.93c1.06-0.1,2.09-0.53,2.87-1.22c0.8-0.67,1.35-1.57,1.77-2.48c0.83-1.82,1.13-3.54,1.13-5.49
				c0.01-0.97-0.07-1.95-0.35-2.9c-0.28-0.95-0.78-1.87-1.51-2.61c-0.72-0.74-1.62-1.32-2.58-1.63c-0.96-0.32-2-0.31-2.95-0.1
				c-1.95,0.45-3.32,1.68-4.32,3.25c-0.99,1.59-1.26,3.36-1.12,5.22c0.07,0.94,0.25,1.84,0.56,2.69c0.3,0.86,0.69,1.71,1.27,2.52
				c0.57,0.82,1.27,1.6,2.18,2.1C63.04,33.82,64.13,34.03,65.19,33.93z M65.22,34.22c-1.1,0.12-2.23,0.08-3.37-0.17
				c-1.13-0.27-2.26-0.74-3.26-1.43c-1-0.68-1.91-1.62-2.52-2.74c-0.61-1.12-0.95-2.36-1.1-3.59c-0.33-2.45,0.41-5.2,1.98-7.16
				c0.76-0.98,1.7-1.87,2.85-2.46c1.14-0.6,2.43-0.82,3.63-0.8c2.46,0.03,4.64,1.16,6.33,2.64c0.87,0.74,1.69,1.59,2.34,2.61
				c0.66,1.01,1.12,2.17,1.34,3.36c0.22,1.19,0.18,2.47-0.17,3.68c-0.34,1.22-1.04,2.31-1.89,3.16C69.66,33.08,67.39,34,65.22,34.22
				z"/>
			<linearGradient id="SVGID_6_" gradientUnits="userSpaceOnUse" x1="77.3126" y1="14.2521" x2="92.3161" y2="26.8416">
				<stop  offset="0" style="stop-color:#A4D480"/>
				<stop  offset="0.1333" style="stop-color:#9DD383"/>
				<stop  offset="0.3241" style="stop-color:#8AD18D"/>
				<stop  offset="0.5497" style="stop-color:#6BCE9D"/>
				<stop  offset="0.7997" style="stop-color:#41C9B3"/>
				<stop  offset="1" style="stop-color:#19C5C7"/>
			</linearGradient>
			<path class="st6" d="M89.8,13.64c-0.79-0.72-1.77-1.25-2.8-1.41c-1.03-0.19-2.05-0.01-2.97,0.31c-1.83,0.66-3.12,1.77-4.38,3.24
				c-0.61,0.72-1.15,1.53-1.51,2.46c-0.36,0.93-0.53,1.97-0.44,3.01c0.13,2.09,1.3,4.03,3.01,5.09c1.71,1.13,3.54,1.51,5.29,1.17
				c1.77-0.32,3.07-1.43,4.12-2.94c0.52-0.74,0.9-1.54,1.16-2.41c0.27-0.87,0.46-1.82,0.53-2.83c0.07-1,0.04-2.06-0.3-3.05
				C91.2,15.28,90.59,14.36,89.8,13.64z M90,13.42c1.64,1.44,3.08,3.34,3.78,5.67c0.34,1.14,0.51,2.4,0.33,3.66
				c-0.17,1.26-0.65,2.5-1.33,3.57c-0.68,1.06-1.57,2.04-2.7,2.75c-1.12,0.72-2.44,1.14-3.72,1.24c-1.27,0.11-2.61-0.06-3.78-0.57
				c-1.18-0.5-2.15-1.31-2.94-2.17c-1.62-1.76-2.54-3.97-2.89-6.2c-0.19-1.12-0.32-2.28-0.21-3.48c0.09-1.2,0.45-2.42,1.06-3.5
				c0.61-1.06,1.46-2.02,2.55-2.72c1.08-0.7,2.4-1.03,3.63-1.01C85,10.67,86.2,11,87.24,11.51C88.28,12.02,89.18,12.69,90,13.42z"/>
			<linearGradient id="SVGID_7_" gradientUnits="userSpaceOnUse" x1="15.4881" y1="49.2862" x2="79.4139" y2="102.9263">
				<stop  offset="0" style="stop-color:#A4D480"/>
				<stop  offset="0.1333" style="stop-color:#9DD383"/>
				<stop  offset="0.3241" style="stop-color:#8AD18D"/>
				<stop  offset="0.5497" style="stop-color:#6BCE9D"/>
				<stop  offset="0.7997" style="stop-color:#41C9B3"/>
				<stop  offset="1" style="stop-color:#19C5C7"/>
			</linearGradient>
			<path class="st7" d="M83.95,46.13l-6.26,0.67c-2.06,0.3-4.28,0.15-5.98,1.36c-1.71,1.11-2.85,3.04-2.97,5.05
				c-0.09,1.01,0.14,1.98,0.38,3.03c0.22,1.03,0.43,2.06,0.61,3.1c0.74,4.15,1.18,8.38,1.18,12.61l-0.01,1.59
				c-0.01,0.56-0.1,1.2-0.3,1.76c-0.4,1.15-1.21,2.16-2.26,2.8c-1.06,0.64-2.34,0.9-3.58,0.71c-1.24-0.19-2.41-0.83-3.24-1.79
				c-0.42-0.47-0.75-1.03-0.98-1.62l-0.59-1.45l-1.19-2.91c-0.8-1.94-1.55-3.89-2.38-5.8c-0.82-1.91-1.68-3.81-2.58-5.69
				c-0.45-0.94-0.88-1.89-1.37-2.8l-1.48-2.7L50.2,52.7c-0.24-0.39-0.49-0.75-0.79-1.09c-0.59-0.67-1.29-1.24-2.07-1.69
				c-1.55-0.91-3.43-1.24-5.21-0.96L29.8,51.21l-12.35,2.17c-1.82,0.4-3.5,1.45-4.66,2.93c-1.18,1.5-1.79,3.33-1.79,5.33
				c-0.12,4.13,0.11,8.32,0.69,12.43c0.63,4.11,1.64,8.18,2.96,12.12c0.7,1.94,1.49,3.93,2.45,5.69c1.05,1.7,2.64,3.08,4.52,3.78
				c1.86,0.75,3.95,0.87,5.89,0.39c0.97-0.22,1.87-0.67,2.85-1.1l2.87-1.28l2.87-1.28c0.27-0.12,0.43-0.19,0.58-0.31
				c0.15-0.12,0.29-0.26,0.38-0.43c0.2-0.33,0.27-0.74,0.19-1.13c-0.04-0.21-0.1-0.33-0.23-0.59l-0.36-0.71l-0.7-1.43
				c-0.45-0.96-0.88-1.93-1.28-2.91c-0.8-1.96-1.47-4.01-2.02-6.04c-0.56-2.04-1.04-4.11-1.4-6.22c-0.09-0.53-0.17-1.05-0.24-1.58
				c-0.06-0.47-0.17-1.2,0.02-1.9c0.36-1.42,1.72-2.4,3.12-2.48c0.7-0.05,1.44,0.13,2.06,0.52c0.31,0.18,0.58,0.44,0.81,0.71
				l0.31,0.42l0.21,0.34c0.57,0.91,1.1,1.85,1.6,2.81c1.99,3.83,3.28,8.09,3.48,12.48c0.23,4.39-0.68,8.84-2.51,12.81
				c-1.78,3.99-4.44,7.59-7.57,10.59c-3.12,3.02-6.65,5.54-10.35,7.71l-1.39,0.8l-0.09,0.05c-0.01-0.04-0.21,0.23,0.39-0.35
				c0.36-0.47,0.39-1.11,0.05-1.63c-0.55-0.63-0.91-0.59-0.67-0.54l0.37,0.13l0.75,0.25l2.98,1.01l5.96,2.02l11.92,4.07
				c1.02,0.35,1.95,0.7,2.67,0.77c0.37,0.04,0.56-0.01,0.58-0.04c0.02-0.01,0.03-0.02,0.06-0.05c0,0,0.04-0.03,0.09-0.08l0.13-0.13
				l0.53-0.52c1.4-1.41,2.63-2.99,3.76-4.65c2.24-3.34,3.99-7.07,5.32-10.93c0.33-0.97,0.64-1.94,0.92-2.93l0.4-1.48l0.19-0.75
				l0.09-0.37l0.05-0.19l0.02-0.09c-0.03,0.21-0.04-0.35,0.55-0.91c0.75-0.47,1.01-0.32,0.88-0.35l0.1-0.01l0.2-0.02l0.39-0.04
				l0.78-0.08l1.57-0.15l3.13-0.29l6.27-0.58c2.14-0.18,4.08-0.33,5.99-0.85c3.8-1.07,7.31-3.24,9.94-6.27
				c2.59-3.04,4.36-6.86,4.79-10.91c0.43-4.13,0.61-8.33,0.58-12.5c-0.01-2.09-0.1-4.18-0.27-6.27c-0.18-2.08-0.52-4.15-0.77-6.23
				c-0.16-1.03-0.23-2.1-0.48-3.09c-0.28-0.98-0.8-1.89-1.48-2.65c-0.69-0.75-1.56-1.34-2.51-1.71
				C86.02,46.18,84.98,46.03,83.95,46.13z M83.92,45.83c1.07-0.11,2.16,0.03,3.17,0.39c1,0.38,1.92,0.99,2.66,1.77
				c0.73,0.79,1.28,1.75,1.59,2.78c0.15,0.53,0.22,1.05,0.3,1.56l0.24,1.56c0.31,2.08,0.71,4.15,0.94,6.24
				c0.21,2.09,0.39,4.19,0.49,6.3c0.21,4.21,0.21,8.42-0.05,12.66c-0.28,4.33-1.95,8.56-4.64,12.03c-2.72,3.45-6.5,6.1-10.75,7.43
				c-2.13,0.67-4.39,0.92-6.42,1.16l-6.26,0.72l-3.13,0.36l-1.56,0.18l-0.78,0.09l-0.39,0.04l-0.2,0.02l-0.1,0.01
				c-0.19-0.02-0.01,0.12,0.7-0.3c0.53-0.52,0.52-1,0.48-0.74l-0.02,0.1l-0.05,0.2l-0.09,0.39l-0.19,0.78l-0.41,1.56
				c-0.28,1.04-0.6,2.07-0.94,3.09c-1.37,4.09-3.16,8.05-5.57,11.71c-1.2,1.83-2.58,3.55-4.14,5.13l-0.59,0.58l-0.15,0.14
				c-0.04,0.04-0.1,0.1-0.2,0.18c-0.17,0.15-0.37,0.29-0.58,0.41c-0.89,0.5-1.81,0.5-2.48,0.43c-1.37-0.16-2.41-0.61-3.37-0.93
				l-11.89-4.14l-5.94-2.09l-2.97-1.04l-0.74-0.26l-0.37-0.13c0.18,0.03-0.25,0.06-0.84-0.63c-0.38-0.58-0.34-1.29,0.06-1.82
				c0.64-0.63,0.51-0.38,0.55-0.46l0.08-0.05l1.35-0.75c3.57-2.04,6.94-4.39,9.89-7.18c2.96-2.77,5.39-6.03,7.12-9.67
				c1.75-3.61,2.66-7.61,2.53-11.61c-0.11-4.01-1.2-7.99-2.94-11.67c-0.43-0.92-0.91-1.83-1.43-2.71l-0.19-0.33l-0.15-0.22
				c-0.11-0.13-0.22-0.26-0.36-0.34c-0.26-0.18-0.59-0.28-0.93-0.27c-0.69,0.01-1.38,0.48-1.55,1.12c-0.1,0.33-0.08,0.66-0.02,1.23
				c0.05,0.51,0.11,1.02,0.18,1.53c0.29,2.04,0.7,4.08,1.2,6.1c0.48,2.03,1.07,4,1.8,5.94c0.36,0.97,0.76,1.93,1.17,2.88l0.64,1.42
				l0.33,0.71c0.11,0.21,0.27,0.58,0.31,0.88c0.12,0.65,0,1.34-0.35,1.9c-0.17,0.28-0.4,0.53-0.66,0.73
				c-0.26,0.2-0.59,0.34-0.8,0.43l-2.89,1.25l-2.89,1.25c-0.95,0.4-1.94,0.89-3.03,1.12c-2.14,0.5-4.43,0.34-6.46-0.5
				c-2.04-0.81-3.79-2.3-4.97-4.16c-1.06-1.92-1.83-3.84-2.57-5.84c-1.4-4-2.51-8.07-3.26-12.25c-0.74-4.18-1.12-8.4-1.14-12.66
				c-0.08-2.19,0.57-4.6,1.96-6.44c1.36-1.87,3.4-3.25,5.66-3.83c4.2-0.91,8.24-1.73,12.38-2.58c4.14-0.81,8.19-1.66,12.4-2.43
				c2.36-0.38,4.86,0.05,6.94,1.25c1.05,0.59,1.99,1.37,2.76,2.3c0.39,0.46,0.73,0.96,1.03,1.47l0.75,1.42
				c2.12,3.76,3.74,7.63,5.32,11.57c0.79,1.97,1.5,3.95,2.2,5.93l1.06,2.97l0.53,1.49c0.14,0.4,0.33,0.77,0.59,1.09
				c1.02,1.34,3.07,1.77,4.59,0.91c0.76-0.41,1.38-1.1,1.7-1.92c0.17-0.42,0.25-0.83,0.28-1.32l0.08-1.56
				c0.18-4.16-0.07-8.33-0.63-12.47c-0.14-1.04-0.3-2.07-0.47-3.1c-0.18-1-0.43-2.11-0.3-3.2c0.18-2.19,1.47-4.21,3.31-5.35
				c0.92-0.57,1.96-0.93,3.03-1.04l3.13-0.31L83.92,45.83z"/>
		</g>
	</g>
</g>
</svg>
